<?xml version="1.0" standalone="no"?>
<!DOCTYPE svg PUBLIC "-//W3C//DTD SVG 20010904//EN"
 "http://www.w3.org/TR/2001/REC-SVG-20010904/DTD/svg10.dtd">
<svg version="1.0" xmlns="http://www.w3.org/2000/svg"
 width="110.000000pt" height="110.000000pt" viewBox="0 0 110.000000 110.000000"
 preserveAspectRatio="xMidYMid meet">
<metadata>
Created by potrace 1.14, written by Peter Selinger 2001-2017
</metadata>
<g transform="translate(0.000000,110.000000) scale(0.100000,-0.100000)"
fill="#000000" stroke="none">
<path d="M513 889 c-139 -26 -234 -144 -234 -293 0 -73 12 -116 46 -168 27
-40 47 -47 70 -24 28 27 29 65 4 92 -19 20 -24 38 -26 85 -2 74 13 122 49 159
37 39 89 60 150 60 98 0 158 -52 158 -137 0 -89 -49 -145 -140 -158 -32 -4
-40 -53 -14 -79 8 -9 29 -16 46 -16 36 0 82 -45 86 -83 7 -84 -90 -136 -140
-76 -20 24 -19 10 -21 272 -2 186 -3 200 -22 213 -11 8 -31 14 -45 12 l-25 -3
0 -245 c0 -240 1 -246 24 -287 27 -47 74 -73 136 -75 109 -3 189 73 187 180
-1 52 -26 106 -58 127 l-25 16 36 33 c87 82 95 237 16 325 -51 57 -163 88
-258 70z"/>
</g>
</svg>
