<svg width="256" height="83" viewBox="0 0 256 83" fill="none" xmlns="http://www.w3.org/2000/svg">
<g clip-path="url(#clip0_95_71)">
<path d="M48.5732 45.3321L37.6357 40.6446C37.1685 40.4455 36.6492 40.4035 36.1561 40.5251C35.6629 40.6466 35.2226 40.925 34.9014 41.3185L30.0576 47.2364C22.4558 43.6522 16.3381 37.5345 12.7539 29.9327L18.6719 25.089C19.0661 24.7683 19.3451 24.328 19.4667 23.8346C19.5883 23.3412 19.5458 22.8217 19.3457 22.3546L14.6582 11.4171C14.4386 10.9136 14.0502 10.5025 13.5599 10.2547C13.0697 10.0069 12.5083 9.93791 11.9727 10.0597L1.81641 12.4034C1.29997 12.5227 0.839204 12.8134 0.509312 13.2283C0.179419 13.6431 -0.000118966 14.1576 5.91426e-08 14.6876C5.91426e-08 39.7364 20.3027 60.0001 45.3125 60.0001C45.8427 60.0004 46.3573 59.821 46.7724 59.4911C47.1874 59.1612 47.4784 58.7003 47.5977 58.1837L49.9414 48.0274C50.0624 47.4892 49.9919 46.9256 49.7422 46.4336C49.4925 45.9417 49.0791 45.5522 48.5732 45.3321Z" fill="#577986"/>
</g>
<path d="M91.76 35.42C94.64 35.42 97.01 34.31 98.84 32.18L96.5 29.39C95.33 30.68 93.83 31.58 91.94 31.58C88.4 31.58 86.15 28.7 86.15 23.84C86.15 19.1 88.67 16.22 92 16.22C93.71 16.22 94.97 16.97 96.11 18.08L98.45 15.23C97.01 13.73 94.76 12.41 91.94 12.41C86.3 12.41 81.62 16.67 81.62 23.99C81.62 31.4 86.15 35.42 91.76 35.42ZM109.378 35.42C111.448 35.42 113.548 34.73 115.198 33.59L113.728 30.86C112.498 31.61 111.298 32.03 109.948 32.03C107.458 32.03 105.658 30.62 105.268 27.86H115.648C115.738 27.44 115.828 26.66 115.828 25.82C115.828 21.17 113.458 17.81 108.808 17.81C104.848 17.81 101.008 21.17 101.008 26.63C101.008 32.18 104.668 35.42 109.378 35.42ZM105.208 24.92C105.568 22.46 107.128 21.2 108.898 21.2C111.058 21.2 112.078 22.64 112.078 24.92H105.208ZM123.629 35.42C124.679 35.42 125.369 35.24 125.879 35.06L125.339 31.79C125.039 31.85 124.919 31.85 124.769 31.85C124.349 31.85 123.899 31.52 123.899 30.47V11.09H119.489V30.29C119.489 33.41 120.539 35.42 123.629 35.42ZM133.092 35.42C134.142 35.42 134.832 35.24 135.342 35.06L134.802 31.79C134.502 31.85 134.382 31.85 134.232 31.85C133.812 31.85 133.362 31.52 133.362 30.47V11.09H128.952V30.29C128.952 33.41 130.002 35.42 133.092 35.42ZM145.212 41.45H149.622V36.35L149.472 33.62C150.732 34.79 152.172 35.42 153.612 35.42C157.302 35.42 160.752 32.12 160.752 26.36C160.752 21.17 158.292 17.81 154.152 17.81C152.352 17.81 150.612 18.74 149.232 19.97H149.142L148.782 18.23H145.212V41.45ZM152.652 31.79C151.752 31.79 150.672 31.49 149.622 30.56V23.15C150.762 21.98 151.782 21.41 152.892 21.41C155.232 21.41 156.222 23.18 156.222 26.42C156.222 30.05 154.662 31.79 152.652 31.79ZM164.518 35H168.928V23.45C170.158 22.25 171.028 21.59 172.408 21.59C174.028 21.59 174.778 22.46 174.778 25.1V35H179.188V24.53C179.188 20.33 177.598 17.81 173.998 17.81C171.718 17.81 170.038 19.01 168.718 20.27L168.928 17.12V11.09H164.518V35ZM190.728 35.42C194.928 35.42 198.768 32.18 198.768 26.63C198.768 21.05 194.928 17.81 190.728 17.81C186.498 17.81 182.658 21.05 182.658 26.63C182.658 32.18 186.498 35.42 190.728 35.42ZM190.728 31.85C188.418 31.85 187.158 29.78 187.158 26.63C187.158 23.45 188.418 21.41 190.728 21.41C193.008 21.41 194.268 23.45 194.268 26.63C194.268 29.78 193.008 31.85 190.728 31.85ZM202.487 35H206.897V23.45C208.127 22.25 208.997 21.59 210.377 21.59C211.997 21.59 212.747 22.46 212.747 25.1V35H217.157V24.53C217.157 20.33 215.567 17.81 211.967 17.81C209.687 17.81 207.947 19.01 206.507 20.45H206.417L206.057 18.23H202.487V35ZM229.026 35.42C231.096 35.42 233.196 34.73 234.846 33.59L233.376 30.86C232.146 31.61 230.946 32.03 229.596 32.03C227.106 32.03 225.306 30.62 224.916 27.86H235.296C235.386 27.44 235.476 26.66 235.476 25.82C235.476 21.17 233.106 17.81 228.456 17.81C224.496 17.81 220.656 21.17 220.656 26.63C220.656 32.18 224.316 35.42 229.026 35.42ZM224.856 24.92C225.216 22.46 226.776 21.2 228.546 21.2C230.706 21.2 231.726 22.64 231.726 24.92H224.856Z" fill="white"/>
<path d="M84.78 74.82H86.98V70.56H91.02V68.48H86.98V64.22H84.78V68.48H80.76V70.56H84.78V74.82ZM97.6769 77.28C100.657 77.28 102.657 75.58 102.657 73.34C102.657 71.3 101.537 70.12 100.177 69.38V69.28C101.137 68.58 102.077 67.36 102.077 65.88C102.077 63.52 100.397 61.96 97.7769 61.96C95.1969 61.96 93.2969 63.48 93.2969 65.86C93.2969 67.42 94.1369 68.56 95.2569 69.38V69.46C93.8969 70.18 92.7369 71.44 92.7369 73.34C92.7369 75.66 94.8369 77.28 97.6769 77.28ZM98.6169 68.56C97.0569 67.94 95.8969 67.24 95.8969 65.86C95.8969 64.68 96.6969 64.02 97.7169 64.02C98.9369 64.02 99.6769 64.86 99.6769 66.08C99.6769 66.96 99.3369 67.8 98.6169 68.56ZM97.7369 75.2C96.3569 75.2 95.2569 74.34 95.2569 73C95.2569 71.9 95.8169 70.9 96.6369 70.26C98.5369 71.06 99.9169 71.68 99.9169 73.22C99.9169 74.5 99.0169 75.2 97.7369 75.2ZM104.434 77H114.354V74.52H111.154C110.454 74.52 109.474 74.62 108.734 74.7C111.434 72.06 113.674 69.18 113.674 66.48C113.674 63.72 111.794 61.94 109.014 61.94C106.994 61.94 105.654 62.72 104.294 64.18L105.914 65.78C106.674 64.94 107.534 64.24 108.634 64.24C110.054 64.24 110.834 65.16 110.834 66.64C110.834 68.92 108.474 71.7 104.434 75.32V77ZM116.351 72.34H121.831V70.24H116.351V72.34ZM124.413 77H133.333V74.62H130.553V62.2H128.373C127.413 62.78 126.413 63.16 124.913 63.44V65.26H127.613V74.62H124.413V77ZM140.49 77.28C143.49 77.28 145.49 74.66 145.49 69.54C145.49 64.44 143.49 61.94 140.49 61.94C137.47 61.94 135.47 64.44 135.47 69.54C135.47 74.66 137.47 77.28 140.49 77.28ZM140.49 74.98C139.21 74.98 138.25 73.7 138.25 69.54C138.25 65.4 139.21 64.2 140.49 64.2C141.77 64.2 142.71 65.4 142.71 69.54C142.71 73.7 141.77 74.98 140.49 74.98ZM147.347 72.34H152.827V70.24H147.347V72.34ZM158.889 77.28C161.829 77.28 164.569 74.86 164.569 69.26C164.569 64.14 162.049 61.94 159.229 61.94C156.709 61.94 154.589 63.82 154.589 66.88C154.589 70.02 156.349 71.52 158.829 71.52C159.869 71.52 161.209 70.86 162.009 69.76L161.849 67.76C161.129 68.98 160.209 69.44 159.369 69.44C158.109 69.44 157.269 68.6 157.269 66.88C157.269 65.04 158.169 64.14 159.289 64.14C160.729 64.14 161.869 65.48 161.869 69.26C161.869 73.5 160.449 74.9 158.709 74.9C157.829 74.9 156.929 74.44 156.369 73.82L154.809 75.6C155.709 76.52 157.029 77.28 158.889 77.28ZM166.426 77H176.346V74.52H173.146C172.446 74.52 171.466 74.62 170.726 74.7C173.426 72.06 175.666 69.18 175.666 66.48C175.666 63.72 173.786 61.94 171.006 61.94C168.986 61.94 167.646 62.72 166.286 64.18L167.906 65.78C168.666 64.94 169.526 64.24 170.626 64.24C172.046 64.24 172.826 65.16 172.826 66.64C172.826 68.92 170.466 71.7 166.426 75.32V77ZM183.263 77.28C186.243 77.28 188.243 75.58 188.243 73.34C188.243 71.3 187.123 70.12 185.763 69.38V69.28C186.723 68.58 187.663 67.36 187.663 65.88C187.663 63.52 185.983 61.96 183.363 61.96C180.783 61.96 178.883 63.48 178.883 65.86C178.883 67.42 179.723 68.56 180.843 69.38V69.46C179.483 70.18 178.323 71.44 178.323 73.34C178.323 75.66 180.423 77.28 183.263 77.28ZM184.203 68.56C182.643 67.94 181.483 67.24 181.483 65.86C181.483 64.68 182.283 64.02 183.303 64.02C184.523 64.02 185.263 64.86 185.263 66.08C185.263 66.96 184.923 67.8 184.203 68.56ZM183.323 75.2C181.943 75.2 180.843 74.34 180.843 73C180.843 71.9 181.403 70.9 182.223 70.26C184.123 71.06 185.503 71.68 185.503 73.22C185.503 74.5 184.603 75.2 183.323 75.2ZM194.64 77.28C197.48 77.28 199.86 75.72 199.86 73C199.86 71.04 198.58 69.82 196.9 69.34V69.24C198.48 68.64 199.36 67.46 199.36 65.88C199.36 63.34 197.42 61.94 194.56 61.94C192.84 61.94 191.42 62.64 190.14 63.74L191.64 65.56C192.52 64.74 193.38 64.24 194.44 64.24C195.7 64.24 196.42 64.94 196.42 66.1C196.42 67.42 195.54 68.34 192.82 68.34V70.46C196.04 70.46 196.9 71.36 196.9 72.82C196.9 74.14 195.88 74.9 194.36 74.9C193.02 74.9 191.96 74.22 191.08 73.36L189.68 75.22C190.72 76.42 192.3 77.28 194.64 77.28ZM201.937 72.34H207.417V70.24H201.937V72.34ZM212.079 77H215.059C215.319 71.22 215.759 68.18 219.199 63.98V62.2H209.379V64.66H216.039C213.199 68.58 212.359 71.88 212.079 77ZM221.016 77H230.936V74.52H227.736C227.036 74.52 226.056 74.62 225.316 74.7C228.016 72.06 230.256 69.18 230.256 66.48C230.256 63.72 228.376 61.94 225.596 61.94C223.576 61.94 222.236 62.72 220.876 64.18L222.496 65.78C223.256 64.94 224.116 64.24 225.216 64.24C226.636 64.24 227.416 65.16 227.416 66.64C227.416 68.92 225.056 71.7 221.016 75.32V77ZM238.693 77H241.433V62.2H237.893L232.393 71.16V73.18H243.193V70.92H235.253L237.533 67.24C237.953 66.44 238.353 65.62 238.733 64.82H238.813C238.773 65.7 238.693 67.04 238.693 67.9V77ZM247.47 77H250.45C250.71 71.22 251.15 68.18 254.59 63.98V62.2H244.77V64.66H251.43C248.59 68.58 247.75 71.88 247.47 77Z" fill="#8ABFD3"/>
<defs>
<clipPath id="clip0_95_71">
<rect width="50" height="50" fill="white" transform="translate(0 10)"/>
</clipPath>
</defs>
</svg>
