<svg width="281" height="83" viewBox="0 0 281 83" fill="none" xmlns="http://www.w3.org/2000/svg">
<path d="M54.375 8.5H5.625C2.51836 8.5 0 11.0184 0 14.125V47.875C0 50.9816 2.51836 53.5 5.625 53.5H54.375C57.4816 53.5 60 50.9816 60 47.875V14.125C60 11.0184 57.4816 8.5 54.375 8.5ZM54.375 14.125V18.9068C51.7474 21.0466 47.5584 24.3738 38.6031 31.3861C36.6295 32.9385 32.7202 36.668 30 36.6245C27.2803 36.6685 23.3696 32.9379 21.3969 31.3861C12.443 24.3748 8.25293 21.0469 5.625 18.9068V14.125H54.375ZM5.625 47.875V26.1248C8.31023 28.2636 12.1182 31.2648 17.9224 35.8098C20.4838 37.8261 24.9694 42.277 30 42.2499C35.0059 42.277 39.4346 37.8906 42.0765 35.8108C47.8806 31.2659 51.6896 28.2638 54.375 26.1249V47.875H5.625Z" fill="#577986"/>
<path d="M82.73 35H96.68V31.28H87.17V25.37H94.94V21.62H87.17V16.49H96.35V12.8H82.73V35ZM100.827 35H105.237V23.45C106.377 22.19 107.487 21.59 108.417 21.59C110.037 21.59 110.787 22.46 110.787 25.1V35H115.197V23.45C116.397 22.19 117.447 21.59 118.407 21.59C120.027 21.59 120.747 22.46 120.747 25.1V35H125.157V24.53C125.157 20.33 123.537 17.81 119.967 17.81C117.777 17.81 116.157 19.13 114.597 20.72C113.817 18.86 112.407 17.81 109.977 17.81C107.817 17.81 106.257 19.01 104.847 20.45H104.757L104.397 18.23H100.827V35ZM133.853 35.42C135.773 35.42 137.453 34.49 138.923 33.23H139.043L139.373 35H142.973V25.22C142.973 20.33 140.783 17.81 136.523 17.81C133.853 17.81 131.483 18.8 129.503 20L131.093 22.94C132.623 22.01 134.153 21.35 135.713 21.35C137.783 21.35 138.473 22.58 138.563 24.23C131.813 24.98 128.903 26.87 128.903 30.44C128.903 33.32 130.853 35.42 133.853 35.42ZM135.293 31.97C134.003 31.97 133.103 31.4 133.103 30.11C133.103 28.58 134.453 27.47 138.563 26.96V30.35C137.483 31.4 136.553 31.97 135.293 31.97ZM147.468 35H151.878V18.23H147.468V35ZM149.658 15.5C151.188 15.5 152.238 14.54 152.238 13.07C152.238 11.63 151.188 10.7 149.658 10.7C148.128 10.7 147.108 11.63 147.108 13.07C147.108 14.54 148.128 15.5 149.658 15.5ZM160.719 35.42C161.769 35.42 162.459 35.24 162.969 35.06L162.429 31.79C162.129 31.85 162.009 31.85 161.859 31.85C161.439 31.85 160.989 31.52 160.989 30.47V11.09H156.579V30.29C156.579 33.41 157.629 35.42 160.719 35.42Z" fill="white"/>
<path d="M84.34 77.28C85.04 77.28 85.5 77.16 85.84 77.04L85.48 74.86C85.28 74.9 85.2 74.9 85.1 74.9C84.82 74.9 84.52 74.68 84.52 73.98V61.06H81.58V73.86C81.58 75.94 82.28 77.28 84.34 77.28ZM93.4886 77.28C95.9486 77.28 98.2486 75.08 98.2486 71.22C98.2486 67.78 96.5886 65.54 93.8486 65.54C92.7286 65.54 91.6286 66.08 90.7286 66.86L90.8286 65.08V61.06H87.8886V77H90.1886L90.4286 75.82H90.5086C91.4086 76.76 92.4886 77.28 93.4886 77.28ZM92.8486 74.86C92.2486 74.86 91.5086 74.66 90.8286 74.04V69.1C91.5686 68.32 92.2686 67.94 93.0086 67.94C94.5686 67.94 95.2286 69.12 95.2286 71.28C95.2286 73.7 94.1886 74.86 92.8486 74.86ZM103.109 77.28C104.389 77.28 105.509 76.66 106.489 75.82H106.569L106.789 77H109.189V70.48C109.189 67.22 107.729 65.54 104.889 65.54C103.109 65.54 101.529 66.2 100.209 67L101.269 68.96C102.289 68.34 103.309 67.9 104.349 67.9C105.729 67.9 106.189 68.72 106.249 69.82C101.749 70.32 99.8091 71.58 99.8091 73.96C99.8091 75.88 101.109 77.28 103.109 77.28ZM104.069 74.98C103.209 74.98 102.609 74.6 102.609 73.74C102.609 72.72 103.509 71.98 106.249 71.64V73.9C105.529 74.6 104.909 74.98 104.069 74.98ZM116.505 77.28C119.525 77.28 121.505 74.64 121.505 69.74C121.505 64.86 119.525 62.32 116.505 62.32C113.445 62.32 111.485 64.84 111.485 69.74C111.485 74.64 113.445 77.28 116.505 77.28ZM116.505 74.98C115.225 74.98 114.265 73.76 114.265 69.74C114.265 65.72 115.225 64.6 116.505 64.6C117.785 64.6 118.725 65.72 118.725 69.74C118.725 73.76 117.785 74.98 116.505 74.98ZM127.922 77.28C130.642 77.28 133.102 75.46 133.102 72.28C133.102 69.2 131.022 67.8 128.542 67.8C127.862 67.8 127.342 67.92 126.762 68.2L127.042 65.06H132.422V62.58H124.502L124.082 69.78L125.442 70.66C126.302 70.1 126.782 69.86 127.662 69.86C129.142 69.86 130.142 70.78 130.142 72.36C130.142 73.98 129.082 74.9 127.522 74.9C126.162 74.9 125.102 74.22 124.282 73.4L122.902 75.26C124.022 76.36 125.582 77.28 127.922 77.28ZM140.099 77.28C143.119 77.28 145.099 74.64 145.099 69.74C145.099 64.86 143.119 62.32 140.099 62.32C137.039 62.32 135.079 64.84 135.079 69.74C135.079 74.64 137.039 77.28 140.099 77.28ZM140.099 74.98C138.819 74.98 137.859 73.76 137.859 69.74C137.859 65.72 138.819 64.6 140.099 64.6C141.379 64.6 142.319 65.72 142.319 69.74C142.319 73.76 141.379 74.98 140.099 74.98ZM149.696 77H152.676C152.936 71.38 153.456 68.5 156.816 64.4V62.58H146.996V65.06H153.656C150.896 68.88 149.976 72.04 149.696 77ZM167.333 80.8C168.953 80.8 170.373 80.46 171.733 79.7L171.073 78.08C170.133 78.6 168.813 79 167.573 79C163.953 79 160.893 76.74 160.893 72.28C160.893 67.12 164.773 63.78 168.693 63.78C173.053 63.78 174.913 66.62 174.913 69.98C174.913 72.58 173.493 74.24 172.093 74.24C171.033 74.24 170.653 73.54 171.013 72.08L172.013 67.22H170.193L169.873 68.16H169.833C169.433 67.38 168.833 67.04 168.093 67.04C165.473 67.04 163.553 69.84 163.553 72.5C163.553 74.58 164.753 75.88 166.473 75.88C167.433 75.88 168.553 75.24 169.213 74.36H169.273C169.473 75.48 170.513 76.08 171.813 76.08C174.093 76.08 176.793 74 176.793 69.9C176.793 65.22 173.733 61.96 168.933 61.96C163.493 61.96 158.893 66.08 158.893 72.36C158.893 78.04 162.833 80.8 167.333 80.8ZM167.093 74C166.313 74 165.793 73.48 165.793 72.34C165.793 70.88 166.713 68.94 168.173 68.94C168.693 68.94 169.053 69.16 169.333 69.68L168.773 72.88C168.133 73.7 167.613 74 167.093 74ZM179.51 77H182.45V69.3C183.27 68.5 183.85 68.06 184.77 68.06C185.85 68.06 186.35 68.64 186.35 70.4V77H189.29V70.02C189.29 67.22 188.23 65.54 185.83 65.54C184.31 65.54 183.15 66.34 182.19 67.3H182.13L181.89 65.82H179.51V77ZM195.062 77.28C196.342 77.28 197.462 76.66 198.442 75.82H198.522L198.742 77H201.142V70.48C201.142 67.22 199.682 65.54 196.842 65.54C195.062 65.54 193.482 66.2 192.162 67L193.222 68.96C194.242 68.34 195.262 67.9 196.302 67.9C197.682 67.9 198.142 68.72 198.202 69.82C193.702 70.32 191.762 71.58 191.762 73.96C191.762 75.88 193.062 77.28 195.062 77.28ZM196.022 74.98C195.162 74.98 194.562 74.6 194.562 73.74C194.562 72.72 195.462 71.98 198.202 71.64V73.9C197.482 74.6 196.862 74.98 196.022 74.98ZM206.659 77H210.059L213.799 65.82H210.959L209.319 71.4C209.019 72.5 208.719 73.64 208.419 74.78H208.319C208.019 73.64 207.719 72.5 207.419 71.4L205.799 65.82H202.819L206.659 77ZM220.269 77.28C221.649 77.28 223.049 76.82 224.149 76.06L223.169 74.24C222.349 74.74 221.549 75.02 220.649 75.02C218.989 75.02 217.789 74.08 217.529 72.24H224.449C224.509 71.96 224.569 71.44 224.569 70.88C224.569 67.78 222.989 65.54 219.889 65.54C217.249 65.54 214.689 67.78 214.689 71.42C214.689 75.12 217.129 77.28 220.269 77.28ZM217.489 70.28C217.729 68.64 218.769 67.8 219.949 67.8C221.389 67.8 222.069 68.76 222.069 70.28H217.489ZM227.01 77H229.95V70.34C230.57 68.72 231.63 68.12 232.49 68.12C232.97 68.12 233.27 68.2 233.67 68.3L234.17 65.78C233.83 65.62 233.47 65.54 232.87 65.54C231.71 65.54 230.49 66.32 229.69 67.8H229.63L229.39 65.82H227.01V77ZM235.545 77.28C236.585 77.28 237.385 76.46 237.385 75.36C237.385 74.26 236.585 73.46 235.545 73.46C234.485 73.46 233.725 74.26 233.725 75.36C233.725 76.46 234.485 77.28 235.545 77.28ZM244.758 77.28C245.998 77.28 247.378 76.86 248.438 75.94L247.278 74C246.658 74.5 245.898 74.9 245.078 74.9C243.478 74.9 242.318 73.52 242.318 71.42C242.318 69.3 243.458 67.94 245.198 67.94C245.798 67.94 246.338 68.18 246.898 68.66L248.278 66.78C247.458 66.06 246.418 65.54 245.018 65.54C241.978 65.54 239.318 67.7 239.318 71.42C239.318 75.12 241.678 77.28 244.758 77.28ZM254.541 77.28C257.341 77.28 259.901 75.12 259.901 71.42C259.901 67.7 257.341 65.54 254.541 65.54C251.721 65.54 249.161 67.7 249.161 71.42C249.161 75.12 251.721 77.28 254.541 77.28ZM254.541 74.9C253.001 74.9 252.161 73.52 252.161 71.42C252.161 69.3 253.001 67.94 254.541 67.94C256.061 67.94 256.901 69.3 256.901 71.42C256.901 73.52 256.061 74.9 254.541 74.9ZM262.381 77H265.321V69.3C266.081 68.46 266.821 68.06 267.441 68.06C268.521 68.06 269.021 68.64 269.021 70.4V77H271.961V69.3C272.761 68.46 273.461 68.06 274.101 68.06C275.181 68.06 275.661 68.64 275.661 70.4V77H278.601V70.02C278.601 67.22 277.521 65.54 275.141 65.54C273.681 65.54 272.601 66.42 271.561 67.48C271.041 66.24 270.101 65.54 268.481 65.54C267.041 65.54 266.001 66.34 265.061 67.3H265.001L264.761 65.82H262.381V77Z" fill="#8ABFD3"/>
</svg>
