<svg width="246" height="83" viewBox="0 0 246 83" fill="none" xmlns="http://www.w3.org/2000/svg">
<g clip-path="url(#clip0_95_70)">
<path d="M18.5054 60.8903C2.89717 38.2631 0 35.9408 0 27.625C0 16.2341 9.23409 7 20.625 7C32.0159 7 41.25 16.2341 41.25 27.625C41.25 35.9408 38.3528 38.2631 22.7446 60.8903C21.7204 62.37 19.5295 62.3699 18.5054 60.8903ZM20.625 36.2188C25.3712 36.2188 29.2188 32.3712 29.2188 27.625C29.2188 22.8788 25.3712 19.0312 20.625 19.0312C15.8788 19.0312 12.0312 22.8788 12.0312 27.625C12.0312 32.3712 15.8788 36.2188 20.625 36.2188Z" fill="#577986"/>
</g>
<path d="M71.13 35H75.63L78.81 23.45C79.47 21.14 80.1 18.59 80.7 16.19H80.82C81.45 18.56 82.08 21.14 82.74 23.45L85.92 35H90.57L83.46 12.8H78.24L71.13 35ZM75.54 29.3H86.1V25.88H75.54V29.3ZM98.7488 35.42C100.489 35.42 102.169 34.49 103.399 33.26H103.489L103.819 35H107.419V11.09H103.009V16.97L103.189 19.61C101.959 18.5 100.789 17.81 98.8988 17.81C95.2988 17.81 91.8488 21.14 91.8488 26.63C91.8488 32.15 94.5488 35.42 98.7488 35.42ZM99.8588 31.79C97.6688 31.79 96.3788 30.08 96.3788 26.57C96.3788 23.21 97.9988 21.41 99.8888 21.41C100.939 21.41 102.019 21.77 103.009 22.7V30.08C102.049 31.31 101.059 31.79 99.8588 31.79ZM118.055 35.42C119.795 35.42 121.475 34.49 122.705 33.26H122.795L123.125 35H126.725V11.09H122.315V16.97L122.495 19.61C121.265 18.5 120.095 17.81 118.205 17.81C114.605 17.81 111.155 21.14 111.155 26.63C111.155 32.15 113.855 35.42 118.055 35.42ZM119.165 31.79C116.975 31.79 115.685 30.08 115.685 26.57C115.685 23.21 117.305 21.41 119.195 21.41C120.245 21.41 121.325 21.77 122.315 22.7V30.08C121.355 31.31 120.365 31.79 119.165 31.79ZM131.452 35H135.862V25.01C136.792 22.58 138.382 21.68 139.672 21.68C140.392 21.68 140.842 21.8 141.442 21.95L142.192 18.17C141.682 17.93 141.142 17.81 140.242 17.81C138.502 17.81 136.672 18.98 135.472 21.2H135.382L135.022 18.23H131.452V35ZM151.37 35.42C153.44 35.42 155.54 34.73 157.19 33.59L155.72 30.86C154.49 31.61 153.29 32.03 151.94 32.03C149.45 32.03 147.65 30.62 147.26 27.86H157.64C157.73 27.44 157.82 26.66 157.82 25.82C157.82 21.17 155.45 17.81 150.8 17.81C146.84 17.81 143 21.17 143 26.63C143 32.18 146.66 35.42 151.37 35.42ZM147.2 24.92C147.56 22.46 149.12 21.2 150.89 21.2C153.05 21.2 154.07 22.64 154.07 24.92H147.2ZM166.281 35.42C170.631 35.42 172.941 33.08 172.941 30.11C172.941 27.02 170.511 25.88 168.291 25.04C166.491 24.41 164.961 23.93 164.961 22.73C164.961 21.74 165.651 21.08 167.181 21.08C168.411 21.08 169.611 21.68 170.781 22.52L172.791 19.88C171.411 18.8 169.491 17.81 167.061 17.81C163.221 17.81 160.821 19.94 160.821 22.91C160.821 25.76 163.191 27.02 165.321 27.86C167.061 28.52 168.831 29.12 168.831 30.35C168.831 31.4 168.051 32.15 166.371 32.15C164.811 32.15 163.401 31.46 161.871 30.29L159.891 33.08C161.541 34.46 164.031 35.42 166.281 35.42ZM181.135 35.42C185.485 35.42 187.795 33.08 187.795 30.11C187.795 27.02 185.365 25.88 183.145 25.04C181.345 24.41 179.815 23.93 179.815 22.73C179.815 21.74 180.505 21.08 182.035 21.08C183.265 21.08 184.465 21.68 185.635 22.52L187.645 19.88C186.265 18.8 184.345 17.81 181.915 17.81C178.075 17.81 175.675 19.94 175.675 22.91C175.675 25.76 178.045 27.02 180.175 27.86C181.915 28.52 183.685 29.12 183.685 30.35C183.685 31.4 182.905 32.15 181.225 32.15C179.665 32.15 178.255 31.46 176.725 30.29L174.745 33.08C176.395 34.46 178.885 35.42 181.135 35.42Z" fill="white"/>
<path d="M80.72 63.18V65.3H85.06V63.18H80.72ZM80.58 67.02V69.14H84.92V67.02H80.58ZM84.64 60.26V70.92H87.3V60.26H84.64ZM78.6 61.52V62.8C78.6 65.7 76.64 68.02 71.94 69.24L72.98 71.34C78.6 69.8 81.44 66.56 81.44 61.52H78.6ZM72.96 61.52V63.64H80.46V61.52H72.96ZM81.16 71.16C77.4 71.16 74.9 72.6 74.9 74.92C74.9 77.24 77.4 78.7 81.16 78.7C84.92 78.7 87.42 77.24 87.42 74.92C87.42 72.6 84.92 71.16 81.16 71.16ZM81.16 73.2C83.44 73.2 84.8 73.78 84.8 74.92C84.8 76.06 83.44 76.62 81.16 76.62C78.9 76.62 77.54 76.06 77.54 74.92C77.54 73.78 78.9 73.2 81.16 73.2ZM102.958 60.26V78.78H105.638V60.26H102.958ZM97.4984 62.18V62.66C97.4984 67.62 95.5784 70.98 90.2584 73.54L91.6384 75.66C98.2184 72.48 100.138 67.84 100.138 62.18H97.4984ZM91.2384 62.18V64.28H98.7584V62.18H91.2384ZM110.557 68.52V70.64H123.577V68.52H110.557ZM108.617 74.52V76.7H125.377V74.52H108.617ZM115.637 69.48V75.22H118.297V69.48H115.637ZM110.557 61.52V69.44H113.217V63.66H123.437V61.52H110.557ZM138.507 60.8V61.66C138.507 63.84 136.407 66.26 132.147 66.82L133.187 68.96C138.047 68.24 140.847 65.22 140.847 61.66V60.8H138.507ZM139.007 60.8V61.66C139.007 65.22 141.807 68.24 146.667 68.96L147.687 66.82C143.447 66.26 141.327 63.82 141.327 61.66V60.8H139.007ZM138.527 72V78.78H141.167V72H138.527ZM131.547 70.32V72.48H148.287V70.32H131.547ZM154.745 69.76V73.82H157.405V69.76H154.745ZM162.865 60.26V74.28H165.525V60.26H162.865ZM152.185 76.34V78.46H165.925V76.34H152.185ZM152.185 72.96V76.9H154.845V72.96H152.185ZM150.185 70.56C153.525 70.56 157.865 70.46 161.805 69.8L161.645 67.9C157.765 68.4 153.245 68.44 149.865 68.44L150.185 70.56ZM159.365 71.02V72.84H163.445V71.02H159.365ZM155.825 60.9C153.105 60.9 151.205 62.24 151.205 64.2C151.205 66.18 153.105 67.5 155.825 67.5C158.525 67.5 160.425 66.18 160.425 64.2C160.425 62.24 158.525 60.9 155.825 60.9ZM155.825 62.84C157.045 62.84 157.905 63.3 157.905 64.2C157.905 65.1 157.045 65.56 155.825 65.56C154.585 65.56 153.725 65.1 153.725 64.2C153.725 63.3 154.585 62.84 155.825 62.84ZM172.843 61.68V64.38C172.843 67.98 171.323 71.54 168.103 72.94L169.683 75.14C173.363 73.44 175.003 69.14 175.003 64.38V61.68H172.843ZM173.363 61.68V64.38C173.363 68.94 175.003 73.06 178.583 74.7L180.143 72.56C176.983 71.2 175.523 67.8 175.523 64.38V61.68H173.363ZM181.023 60.24V78.82H183.703V60.24H181.023ZM191.633 61.38V63.42H201.513V61.38H191.633ZM191.413 69.42C194.573 69.4 198.673 69.36 202.273 68.78L202.153 66.88C198.633 67.28 194.373 67.32 191.153 67.32L191.413 69.42ZM193.093 62.4V68.54H195.653V62.4H193.093ZM197.513 62.4V68.54H200.053V62.4H197.513ZM203.173 60.26V69.74H205.833V60.26H203.173ZM204.753 63.88V66.04H208.273V63.88H204.753ZM193.593 70.48V72.52H203.213V73.58H193.633V77.7H196.273V75.48H205.833V70.48H193.593ZM193.633 76.6V78.66H206.373V76.6H193.633ZM210.292 66.98V69.06H211.832C215.792 69.06 218.032 68.98 220.412 68.44L220.132 66.38C217.792 66.86 215.692 66.98 211.832 66.98H210.292ZM210.292 61.22V68.14H212.932V63.3H218.572V61.22H210.292ZM221.572 60.26V69.46H224.232V60.26H221.572ZM223.492 63.74V65.9H226.692V63.74H223.492ZM211.992 70.22V72.3H221.612V73.38H212.032V77.56H214.672V75.34H224.232V70.22H211.992ZM212.032 76.48V78.58H224.772V76.48H212.032ZM229.97 61.34V63.44H241.59V61.34H229.97ZM228.07 69.22V71.36H244.81V69.22H228.07ZM235.01 70.72V78.8H237.69V70.72H235.01ZM240.23 61.34V62.98C240.23 64.9 240.23 67.1 239.51 70.2L242.13 70.5C242.85 67.22 242.85 64.98 242.85 62.98V61.34H240.23Z" fill="#8ABFD3"/>
<defs>
<clipPath id="clip0_95_70">
<rect width="41.25" height="55" fill="white" transform="translate(0 7)"/>
</clipPath>
</defs>
</svg>
