<svg width="96" height="104" viewBox="0 0 96 104" fill="none" xmlns="http://www.w3.org/2000/svg">
<g filter="url(#filter0_i_122_66)">
<path d="M37.2188 34.7031C37.2188 33.7969 37.1406 33.1406 36.9844 32.7344C36.8594 32.3281 36.7969 31.9531 36.7969 31.6094C36.7969 31.1406 37.0469 30.75 37.5469 30.4375C38.0469 30.125 38.6406 29.9688 39.3281 29.9688C40.9219 29.9688 42.2031 30.3906 43.1719 31.2344C44.1719 32.0469 44.6719 33.0469 44.6719 34.2344V69.8125C44.6719 72.125 44.8594 74.0938 45.2344 75.7188C45.6094 77.3438 46.1719 78.6719 46.9219 79.7031C47.6719 80.7344 48.5938 81.5 49.6875 82C50.7812 82.4688 52.0312 82.7031 53.4375 82.7031C54.7812 82.7031 56.0156 82.4531 57.1406 81.9531C58.2969 81.4531 59.2969 80.7656 60.1406 79.8906C60.9844 79.0156 61.6406 77.9844 62.1094 76.7969C62.5781 75.6094 62.8125 74.3125 62.8125 72.9062C62.8125 70.75 62.4375 68.9531 61.6875 67.5156C60.9375 66.0781 59.9531 64.9219 58.7344 64.0469C57.5469 63.1719 56.1875 62.5625 54.6562 62.2188C53.1562 61.8438 51.6562 61.6562 50.1562 61.6562C49.875 61.6562 49.5938 61.4844 49.3125 61.1406C49.0312 60.7656 48.7969 60.3125 48.6094 59.7812C48.4219 59.25 48.2812 58.6875 48.1875 58.0938C48.0938 57.4688 48.0781 56.8906 48.1406 56.3594C48.2031 55.8281 48.3438 55.3906 48.5625 55.0469C48.8125 54.6719 49.1875 54.4844 49.6875 54.4844C50.4375 54.4844 51.3438 54.3906 52.4062 54.2031C53.4688 54.0156 54.5781 53.6875 55.7344 53.2188C56.8906 52.7188 58.0312 52.0625 59.1562 51.25C60.2812 50.4375 61.2969 49.4062 62.2031 48.1562C63.1094 46.875 63.8438 45.375 64.4062 43.6562C64.9688 41.9062 65.25 39.875 65.25 37.5625C65.25 35.75 64.9375 33.9688 64.3125 32.2188C63.7188 30.4375 62.75 28.8594 61.4062 27.4844C60.0625 26.0781 58.3438 24.9531 56.25 24.1094C54.1562 23.2344 51.6406 22.7969 48.7031 22.7969C44.8594 22.7969 41.5625 23.3906 38.8125 24.5781C36.0625 25.7656 33.8125 27.3594 32.0625 29.3594C30.3438 31.3594 29.0781 33.6875 28.2656 36.3438C27.4531 38.9688 27.0469 41.75 27.0469 44.6875C27.0469 46.8125 27.2188 48.6094 27.5625 50.0781C27.9375 51.5156 28.3438 52.7031 28.7812 53.6406C29.2188 54.5469 29.625 55.2188 30 55.6562C30.375 56.0938 30.5938 56.3438 30.6562 56.4062C31.1875 56.25 31.5625 56.3125 31.7812 56.5938C32 56.875 32.1094 57.25 32.1094 57.7188C32.1094 58.1562 31.9531 58.8125 31.6406 59.6875C31.3594 60.5625 30.9688 61.3906 30.4688 62.1719C29.9688 62.9219 29.3906 63.5 28.7344 63.9062C28.0781 64.2812 27.4062 64.2031 26.7188 63.6719C26.3438 63.3281 25.7656 62.7031 24.9844 61.7969C24.2031 60.8906 23.4219 59.6875 22.6406 58.1875C21.8906 56.6562 21.2188 54.8281 20.625 52.7031C20.0312 50.5469 19.7344 48.0625 19.7344 45.25C19.7344 40.75 20.4375 36.6875 21.8438 33.0625C23.25 29.4062 25.2188 26.2812 27.75 23.6875C30.3125 21.0938 33.3594 19.0938 36.8906 17.6875C40.4219 16.2812 44.3281 15.5781 48.6094 15.5781C52.2344 15.5781 55.5156 16.0781 58.4531 17.0781C61.4219 18.0469 63.9531 19.4688 66.0469 21.3438C68.1406 23.2188 69.75 25.5156 70.875 28.2344C72.0312 30.9219 72.6094 33.9688 72.6094 37.375C72.6094 40 72.2969 42.375 71.6719 44.5C71.0469 46.625 70.1719 48.5312 69.0469 50.2188C67.9531 51.9062 66.6406 53.4062 65.1094 54.7188C63.6094 56 61.9844 57.1094 60.2344 58.0469C61.6406 58.4531 62.9531 59.0625 64.1719 59.875C65.3906 60.6562 66.4531 61.6562 67.3594 62.875C68.2656 64.0938 68.9844 65.5312 69.5156 67.1875C70.0469 68.8125 70.3125 70.6562 70.3125 72.7188C70.3125 75.125 69.875 77.3438 69 79.375C68.1562 81.4062 66.9844 83.1562 65.4844 84.625C63.9844 86.0938 62.2031 87.2344 60.1406 88.0469C58.1094 88.8906 55.9062 89.3125 53.5312 89.3125C50.375 89.3125 47.75 88.8281 45.6562 87.8594C43.5625 86.9219 41.8906 85.5938 40.6406 83.875C39.3906 82.125 38.5 80.0469 37.9688 77.6406C37.4688 75.2031 37.2188 72.5 37.2188 69.5312V34.7031Z" fill="#415A63"/>
</g>
<path d="M36.9844 32.7344L36.5065 32.8814L36.5115 32.8978L36.5177 32.9139L36.9844 32.7344ZM43.1719 31.2344L42.8435 31.6114L42.8499 31.617L42.8566 31.6224L43.1719 31.2344ZM49.6875 82L49.4796 82.4549L49.4905 82.4596L49.6875 82ZM57.1406 81.9531L56.9422 81.4942L56.9376 81.4962L57.1406 81.9531ZM58.7344 64.0469L58.4378 64.4494L58.4428 64.453L58.7344 64.0469ZM54.6562 62.2188L54.5349 62.704L54.5467 62.7066L54.6562 62.2188ZM49.3125 61.1406L48.9125 61.4406L48.9188 61.4491L48.9255 61.4572L49.3125 61.1406ZM48.1875 58.0938L47.693 58.1679L47.6936 58.1717L48.1875 58.0938ZM48.5625 55.0469L48.1464 54.7695L48.1407 54.7784L48.5625 55.0469ZM55.7344 53.2188L55.9223 53.6822L55.9328 53.6777L55.7344 53.2188ZM62.2031 48.1562L62.608 48.4498L62.6113 48.445L62.2031 48.1562ZM64.4062 43.6562L64.8815 43.8118L64.8823 43.8093L64.4062 43.6562ZM64.3125 32.2188L63.8381 32.3769L63.8416 32.3869L64.3125 32.2188ZM61.4062 27.4844L61.0447 27.8298L61.0487 27.8338L61.4062 27.4844ZM56.25 24.1094L56.0572 24.5707L56.0631 24.5731L56.25 24.1094ZM32.0625 29.3594L31.6862 29.0301L31.6833 29.0335L32.0625 29.3594ZM28.2656 36.3438L28.7433 36.4916L28.7438 36.49L28.2656 36.3438ZM27.5625 50.0781L27.0755 50.1921L27.0787 50.2043L27.5625 50.0781ZM28.7812 53.6406L28.3281 53.8521L28.331 53.858L28.7812 53.6406ZM30.6562 56.4062L30.3027 56.7598L30.5126 56.9697L30.7973 56.8859L30.6562 56.4062ZM31.6406 59.6875L31.1698 59.5193L31.1671 59.5269L31.1646 59.5345L31.6406 59.6875ZM30.4688 62.1719L30.8848 62.4493L30.8899 62.4414L30.4688 62.1719ZM28.7344 63.9062L28.9824 64.3404L28.9901 64.336L28.9976 64.3314L28.7344 63.9062ZM26.7188 63.6719L26.3809 64.0405L26.3964 64.0547L26.413 64.0675L26.7188 63.6719ZM22.6406 58.1875L22.1915 58.4075L22.1972 58.4185L22.6406 58.1875ZM20.625 52.7031L20.1429 52.8359L20.1434 52.8377L20.625 52.7031ZM21.8438 33.0625L22.3099 33.2433L22.3104 33.242L21.8438 33.0625ZM27.75 23.6875L27.3943 23.3361L27.3922 23.3383L27.75 23.6875ZM58.4531 17.0781L58.292 17.5515L58.298 17.5535L58.4531 17.0781ZM70.875 28.2344L70.4129 28.4256L70.4157 28.432L70.875 28.2344ZM69.0469 50.2188L68.6308 49.9414L68.6273 49.9468L69.0469 50.2188ZM65.1094 54.7188L65.4341 55.0989L65.4348 55.0984L65.1094 54.7188ZM60.2344 58.0469L59.9983 57.6061L58.9153 58.1863L60.0956 58.5272L60.2344 58.0469ZM64.1719 59.875L63.8945 60.2911L63.902 60.2959L64.1719 59.875ZM69.5156 67.1875L69.0395 67.3402L69.0404 67.3429L69.5156 67.1875ZM69 79.375L68.5408 79.1772L68.5383 79.1832L69 79.375ZM60.1406 88.0469L59.9573 87.5816L59.9488 87.5851L60.1406 88.0469ZM45.6562 87.8594L45.8662 87.4056L45.8606 87.403L45.6562 87.8594ZM40.6406 83.875L40.2337 84.1656L40.2363 84.1691L40.6406 83.875ZM37.9688 77.6406L37.4789 77.7411L37.4805 77.7484L37.9688 77.6406ZM37.7188 34.7031C37.7188 33.7874 37.6424 33.0524 37.451 32.5549L36.5177 32.9139C36.6389 33.2289 36.7188 33.8064 36.7188 34.7031H37.7188ZM37.4623 32.5873C37.3486 32.2179 37.2969 31.8931 37.2969 31.6094H36.2969C36.2969 32.0131 36.3701 32.4383 36.5065 32.8814L37.4623 32.5873ZM37.2969 31.6094C37.2969 31.3584 37.4149 31.1096 37.8119 30.8615L37.2819 30.0135C36.6788 30.3904 36.2969 30.9228 36.2969 31.6094H37.2969ZM37.8119 30.8615C38.22 30.6064 38.7185 30.4688 39.3281 30.4688V29.4688C38.5627 29.4688 37.8738 29.6436 37.2819 30.0135L37.8119 30.8615ZM39.3281 30.4688C40.8313 30.4688 41.9862 30.8647 42.8435 31.6114L43.5003 30.8573C42.4201 29.9165 41.0125 29.4688 39.3281 29.4688V30.4688ZM42.8566 31.6224C43.7511 32.3492 44.1719 33.2115 44.1719 34.2344H45.1719C45.1719 32.8823 44.5927 31.7445 43.4872 30.8463L42.8566 31.6224ZM44.1719 34.2344V69.8125H45.1719V34.2344H44.1719ZM44.1719 69.8125C44.1719 72.1495 44.3611 74.1582 44.7472 75.8312L45.7216 75.6063C45.3576 74.0293 45.1719 72.1005 45.1719 69.8125H44.1719ZM44.7472 75.8312C45.1329 77.5025 45.7178 78.8976 46.5175 79.9972L47.3262 79.409C46.6259 78.4461 46.0859 77.185 45.7216 75.6063L44.7472 75.8312ZM46.5175 79.9972C47.3149 81.0937 48.3029 81.9168 49.4796 82.4547L49.8954 81.5453C48.8846 81.0832 48.0288 80.3751 47.3262 79.409L46.5175 79.9972ZM49.4905 82.4596C50.6568 82.9594 51.9757 83.2031 53.4375 83.2031V82.2031C52.0868 82.2031 50.9057 81.9781 49.8845 81.5404L49.4905 82.4596ZM53.4375 83.2031C54.8447 83.2031 56.1491 82.941 57.3437 82.41L56.9376 81.4962C55.8821 81.9653 54.7178 82.2031 53.4375 82.2031V83.2031ZM57.3391 82.4121C58.5538 81.8868 59.6092 81.162 60.5005 80.2377L59.7807 79.5436C58.9845 80.3692 58.04 81.0195 56.9422 81.4942L57.3391 82.4121ZM60.5005 80.2377C61.392 79.3133 62.0829 78.2257 62.5745 76.9805L61.6443 76.6133C61.1983 77.7431 60.5768 78.718 59.7807 79.5436L60.5005 80.2377ZM62.5745 76.9805C63.0685 75.7288 63.3125 74.369 63.3125 72.9062H62.3125C62.3125 74.256 62.0877 75.4899 61.6443 76.6133L62.5745 76.9805ZM63.3125 72.9062C63.3125 70.695 62.9283 68.8129 62.1308 67.2843L61.2442 67.7469C61.9467 69.0934 62.3125 70.805 62.3125 72.9062H63.3125ZM62.1308 67.2843C61.3476 65.7832 60.3133 64.565 59.026 63.6407L58.4428 64.453C59.5929 65.2788 60.5274 66.373 61.2442 67.7469L62.1308 67.2843ZM59.031 63.6443C57.7842 62.7257 56.3602 62.0888 54.7658 61.7309L54.5467 62.7066C56.0148 63.0362 57.3096 63.6181 58.4378 64.4494L59.031 63.6443ZM54.7775 61.7337C53.2391 61.3491 51.6984 61.1562 50.1562 61.1562V62.1562C51.6141 62.1562 53.0734 62.3384 54.535 62.7038L54.7775 61.7337ZM50.1562 61.1562C50.0943 61.1562 49.9407 61.1189 49.6995 60.824L48.9255 61.4572C49.2468 61.8499 49.6557 62.1562 50.1562 62.1562V61.1562ZM49.7125 60.8406C49.4672 60.5135 49.2548 60.1075 49.0809 59.6148L48.1379 59.9477C48.339 60.5175 48.5953 61.0178 48.9125 61.4406L49.7125 60.8406ZM49.0809 59.6148C48.9042 59.1142 48.7707 58.5814 48.6814 58.0158L47.6936 58.1717C47.7918 58.7936 47.9396 59.3858 48.1379 59.9477L49.0809 59.6148ZM48.682 58.0196C48.5936 57.4308 48.5807 56.8978 48.6372 56.4178L47.644 56.301C47.5755 56.8834 47.5939 57.5067 47.693 58.1679L48.682 58.0196ZM48.6372 56.4178C48.6935 55.9389 48.8166 55.5789 48.9843 55.3153L48.1407 54.7784C47.8709 55.2023 47.7127 55.7174 47.644 56.301L48.6372 56.4178ZM48.9785 55.3242C49.1245 55.1053 49.3332 54.9844 49.6875 54.9844V53.9844C49.0418 53.9844 48.5005 54.2384 48.1465 54.7695L48.9785 55.3242ZM49.6875 54.9844C50.4762 54.9844 51.4133 54.8861 52.4931 54.6955L52.3194 53.7107C51.2742 53.8952 50.3988 53.9844 49.6875 53.9844V54.9844ZM52.4931 54.6955C53.5951 54.5011 54.7384 54.1621 55.9222 53.6821L55.5465 52.7554C54.4179 53.2129 53.3424 53.5302 52.3194 53.7107L52.4931 54.6955ZM55.9328 53.6777C57.1255 53.1619 58.2975 52.4869 59.449 51.6553L58.8635 50.8447C57.765 51.6381 56.6557 52.2756 55.5359 52.7598L55.9328 53.6777ZM59.449 51.6553C60.6216 50.8085 61.674 49.7379 62.6079 48.4497L61.7983 47.8628C60.9198 49.0746 59.9409 50.0665 58.8635 50.8447L59.449 51.6553ZM62.6113 48.445C63.5505 47.1173 64.3057 45.5709 64.8814 43.8118L63.9311 43.5007C63.3818 45.1791 62.6683 46.6327 61.7949 47.8675L62.6113 48.445ZM64.8823 43.8093C65.4641 41.999 65.75 39.9142 65.75 37.5625H64.75C64.75 39.8358 64.4734 41.8135 63.9302 43.5032L64.8823 43.8093ZM65.75 37.5625C65.75 35.6912 65.4272 33.8532 64.7834 32.0506L63.8416 32.3869C64.4478 34.0843 64.75 35.8088 64.75 37.5625H65.75ZM64.7868 32.0606C64.1686 30.2058 63.1592 28.5627 61.7638 27.1349L61.0487 27.8338C62.3408 29.1561 63.2689 30.6692 63.8382 32.3769L64.7868 32.0606ZM61.7677 27.1389C60.3676 25.6737 58.5861 24.5117 56.4369 23.6456L56.0631 24.5731C58.1014 25.3945 59.7574 26.4826 61.0448 27.8298L61.7677 27.1389ZM56.4428 23.648C54.2729 22.7412 51.6882 22.2969 48.7031 22.2969V23.2969C51.5931 23.2969 54.0396 23.7275 56.0572 24.5707L56.4428 23.648ZM48.7031 22.2969C44.8097 22.2969 41.4419 22.8981 38.6143 24.1191L39.0107 25.0372C41.6831 23.8832 44.909 23.2969 48.7031 23.2969V22.2969ZM38.6143 24.1191C35.8047 25.3323 33.4911 26.9674 31.6862 29.0301L32.4388 29.6886C34.1339 27.7513 36.3203 26.1989 39.0107 25.0372L38.6143 24.1191ZM31.6833 29.0335C29.9171 31.0887 28.6191 33.4788 27.7875 36.1975L28.7438 36.49C29.5371 33.8962 30.7704 31.6301 32.4417 29.6853L31.6833 29.0335ZM27.788 36.1959C26.9597 38.872 26.5469 41.7033 26.5469 44.6875H27.5469C27.5469 41.7967 27.9466 39.0655 28.7433 36.4916L27.788 36.1959ZM26.5469 44.6875C26.5469 46.8366 26.7204 48.6743 27.0757 50.1921L28.0493 49.9642C27.7171 48.5445 27.5469 46.7884 27.5469 44.6875H26.5469ZM27.0787 50.2043C27.4583 51.6596 27.8737 52.8782 28.3282 53.8521L29.2343 53.4292C28.8138 52.5281 28.4167 51.3716 28.0463 49.9519L27.0787 50.2043ZM28.331 53.858C28.7755 54.7788 29.2039 55.4957 29.6204 55.9816L30.3796 55.3309C30.0461 54.9418 29.662 54.3149 29.2315 53.4233L28.331 53.858ZM29.6204 55.9816C29.987 56.4094 30.2227 56.6798 30.3027 56.7598L31.0098 56.0527C30.9648 56.0077 30.763 55.7781 30.3796 55.3309L29.6204 55.9816ZM30.7973 56.8859C31.2568 56.7508 31.3585 56.8647 31.3866 56.9007L32.1759 56.2868C31.7665 55.7603 31.1182 55.7492 30.5152 55.9266L30.7973 56.8859ZM31.3866 56.9007C31.5182 57.07 31.6094 57.326 31.6094 57.7188H32.6094C32.6094 57.174 32.4818 56.68 32.1759 56.2868L31.3866 56.9007ZM31.6094 57.7188C31.6094 58.0644 31.4797 58.6516 31.1698 59.5193L32.1115 59.8557C32.4266 58.9734 32.6094 58.2481 32.6094 57.7188H31.6094ZM31.1646 59.5345C30.8967 60.3681 30.5246 61.1571 30.0476 61.9023L30.8899 62.4414C31.4129 61.6242 31.8221 60.7569 32.1166 59.8405L31.1646 59.5345ZM30.0527 61.8945C29.5859 62.5948 29.0571 63.1184 28.4712 63.4811L28.9976 64.3314C29.7242 63.8816 30.3516 63.2489 30.8848 62.4492L30.0527 61.8945ZM28.4863 63.4721C28.2394 63.6132 28.0136 63.6576 27.796 63.6323C27.5727 63.6063 27.3164 63.5018 27.0245 63.2762L26.413 64.0675C26.8086 64.3732 27.232 64.5734 27.6805 64.6256C28.1348 64.6784 28.5731 64.5743 28.9824 64.3404L28.4863 63.4721ZM27.0566 63.3033C26.7054 62.9813 26.144 62.3762 25.3631 61.4704L24.6057 62.1233C25.3873 63.03 25.9821 63.6749 26.3809 64.0405L27.0566 63.3033ZM25.3631 61.4704C24.615 60.6026 23.8542 59.4352 23.0841 57.9565L22.1972 58.4185C22.9895 59.9398 23.7913 61.1786 24.6057 62.1233L25.3631 61.4704ZM23.0897 57.9676C22.3563 56.4703 21.6943 54.6722 21.1066 52.5686L20.1434 52.8377C20.7432 54.984 21.4249 56.8422 22.1916 58.4074L23.0897 57.9676ZM21.1071 52.5704C20.5278 50.4668 20.2344 48.0286 20.2344 45.25H19.2344C19.2344 48.0964 19.5347 50.6269 20.1429 52.8359L21.1071 52.5704ZM20.2344 45.25C20.2344 40.8023 20.9292 36.8024 22.3099 33.2433L21.3776 32.8817C19.9458 36.5726 19.2344 40.6977 19.2344 45.25H20.2344ZM22.3104 33.242C23.6943 29.6439 25.6277 26.578 28.1078 24.0367L27.3922 23.3383C24.8098 25.9845 22.8057 29.1686 21.3771 32.883L22.3104 33.242ZM28.1057 24.0389C30.6176 21.4963 33.6057 19.5339 37.0756 18.152L36.7056 17.223C33.1131 18.6536 30.0074 20.6912 27.3943 23.3361L28.1057 24.0389ZM37.0756 18.152C40.541 16.772 44.3835 16.0781 48.6094 16.0781V15.0781C44.2727 15.0781 40.3027 15.7905 36.7056 17.223L37.0756 18.152ZM48.6094 16.0781C52.1886 16.0781 55.4143 16.5718 58.292 17.5514L58.6143 16.6048C55.617 15.5844 52.2802 15.0781 48.6094 15.0781V16.0781ZM58.298 17.5535C61.2082 18.5031 63.6767 19.8924 65.7133 21.7162L66.3804 20.9713C64.2295 19.0451 61.6356 17.5907 58.6082 16.6028L58.298 17.5535ZM65.7133 21.7162C67.7486 23.5388 69.3153 25.7728 70.413 28.4256L71.337 28.0432C70.1847 25.2585 68.5327 22.8987 66.3804 20.9713L65.7133 21.7162ZM70.4157 28.432C71.5411 31.0477 72.1094 34.0257 72.1094 37.375H73.1094C73.1094 33.9118 72.5214 30.7961 71.3343 28.0368L70.4157 28.432ZM72.1094 37.375C72.1094 39.9608 71.8015 42.2873 71.1922 44.3589L72.1516 44.6411C72.7923 42.4627 73.1094 40.0392 73.1094 37.375H72.1094ZM71.1922 44.3589C70.5801 46.44 69.7254 48.2995 68.6308 49.9414L69.4629 50.4961C70.6183 48.763 71.5136 46.81 72.1516 44.6411L71.1922 44.3589ZM68.6273 49.9468C67.5597 51.594 66.2789 53.0577 64.784 54.3391L65.4348 55.0984C67.0023 53.7548 68.3466 52.2185 69.4665 50.4907L68.6273 49.9468ZM64.7846 54.3386C63.3121 55.5964 61.7168 56.6855 59.9983 57.6061L60.4705 58.4876C62.2519 57.5333 63.9067 56.4036 65.4341 55.0989L64.7846 54.3386ZM60.0956 58.5272C61.4526 58.9193 62.7184 59.5069 63.8945 60.291L64.4492 59.459C63.1879 58.6181 61.8286 57.987 60.3731 57.5665L60.0956 58.5272ZM63.902 60.2959C65.0675 61.043 66.0861 62.0007 66.9581 63.1734L67.7606 62.5766C66.8201 61.3118 65.7138 60.2695 64.4417 59.4541L63.902 60.2959ZM66.9581 63.1734C67.8272 64.3421 68.5227 65.7288 69.0395 67.3402L69.9917 67.0348C69.4461 65.3337 68.704 63.8454 67.7606 62.5766L66.9581 63.1734ZM69.0404 67.3429C69.5522 68.9086 69.8125 70.6985 69.8125 72.7188H70.8125C70.8125 70.614 70.5415 68.7164 69.9909 67.0321L69.0404 67.3429ZM69.8125 72.7188C69.8125 75.063 69.3866 77.2137 68.5408 79.1772L69.4592 79.5728C70.3634 77.4738 70.8125 75.187 70.8125 72.7188H69.8125ZM68.5383 79.1832C67.7191 81.1553 66.5842 82.8483 65.1346 84.2677L65.8342 84.9823C67.3845 83.4642 68.5934 81.6572 69.4617 79.5668L68.5383 79.1832ZM65.1346 84.2677C63.6849 85.6872 61.9612 86.7923 59.9574 87.5817L60.3239 88.5121C62.445 87.6765 64.2838 86.5003 65.8342 84.9823L65.1346 84.2677ZM59.9488 87.5851C57.9831 88.4017 55.8457 88.8125 53.5312 88.8125V89.8125C55.9668 89.8125 58.2357 89.3796 60.3324 88.5086L59.9488 87.5851ZM53.5312 88.8125C50.4224 88.8125 47.8746 88.3349 45.8662 87.4056L45.4463 88.3132C47.6254 89.3214 50.3276 89.8125 53.5312 89.8125V88.8125ZM45.8606 87.403C43.84 86.4983 42.2396 85.2235 41.045 83.5809L40.2363 84.1691C41.5417 85.964 43.285 87.3455 45.4519 88.3157L45.8606 87.403ZM41.0475 83.5844C39.842 81.8966 38.9758 79.8828 38.457 77.5328L37.4805 77.7484C38.0242 80.2109 38.9393 82.3534 40.2338 84.1656L41.0475 83.5844ZM38.4586 77.5402C37.9665 75.1413 37.7188 72.4725 37.7188 69.5312H36.7188C36.7188 72.5275 36.971 75.2649 37.4789 77.7411L38.4586 77.5402ZM37.7188 69.5312V34.7031H36.7188V69.5312H37.7188Z" fill="white" fill-opacity="0.84"/>
<defs>
<filter id="filter0_i_122_66" x="19.7344" y="15.5781" width="52.875" height="77.7344" filterUnits="userSpaceOnUse" color-interpolation-filters="sRGB">
<feFlood flood-opacity="0" result="BackgroundImageFix"/>
<feBlend mode="normal" in="SourceGraphic" in2="BackgroundImageFix" result="shape"/>
<feColorMatrix in="SourceAlpha" type="matrix" values="0 0 0 0 0 0 0 0 0 0 0 0 0 0 0 0 0 0 127 0" result="hardAlpha"/>
<feOffset dy="4"/>
<feGaussianBlur stdDeviation="2"/>
<feComposite in2="hardAlpha" operator="arithmetic" k2="-1" k3="1"/>
<feColorMatrix type="matrix" values="0 0 0 0 0 0 0 0 0 0 0 0 0 0 0 0 0 0 0.25 0"/>
<feBlend mode="normal" in2="shape" result="effect1_innerShadow_122_66"/>
</filter>
</defs>
</svg>
