<svg width="100" height="110" viewBox="0 0 100 110" fill="none" xmlns="http://www.w3.org/2000/svg">
<g filter="url(#filter0_i_113_376)">
<path d="M41.2188 40.7031C41.2188 39.7969 41.1406 39.1406 40.9844 38.7344C40.8594 38.3281 40.7969 37.9531 40.7969 37.6094C40.7969 37.1406 41.0469 36.75 41.5469 36.4375C42.0469 36.125 42.6406 35.9688 43.3281 35.9688C44.9219 35.9688 46.2031 36.3906 47.1719 37.2344C48.1719 38.0469 48.6719 39.0469 48.6719 40.2344V75.8125C48.6719 78.125 48.8594 80.0938 49.2344 81.7188C49.6094 83.3438 50.1719 84.6719 50.9219 85.7031C51.6719 86.7344 52.5938 87.5 53.6875 88C54.7812 88.4688 56.0312 88.7031 57.4375 88.7031C58.7812 88.7031 60.0156 88.4531 61.1406 87.9531C62.2969 87.4531 63.2969 86.7656 64.1406 85.8906C64.9844 85.0156 65.6406 83.9844 66.1094 82.7969C66.5781 81.6094 66.8125 80.3125 66.8125 78.9062C66.8125 76.75 66.4375 74.9531 65.6875 73.5156C64.9375 72.0781 63.9531 70.9219 62.7344 70.0469C61.5469 69.1719 60.1875 68.5625 58.6562 68.2188C57.1562 67.8438 55.6562 67.6562 54.1562 67.6562C53.875 67.6562 53.5938 67.4844 53.3125 67.1406C53.0312 66.7656 52.7969 66.3125 52.6094 65.7812C52.4219 65.25 52.2812 64.6875 52.1875 64.0938C52.0938 63.4688 52.0781 62.8906 52.1406 62.3594C52.2031 61.8281 52.3438 61.3906 52.5625 61.0469C52.8125 60.6719 53.1875 60.4844 53.6875 60.4844C54.4375 60.4844 55.3438 60.3906 56.4062 60.2031C57.4688 60.0156 58.5781 59.6875 59.7344 59.2188C60.8906 58.7188 62.0312 58.0625 63.1562 57.25C64.2812 56.4375 65.2969 55.4062 66.2031 54.1562C67.1094 52.875 67.8438 51.375 68.4062 49.6562C68.9688 47.9062 69.25 45.875 69.25 43.5625C69.25 41.75 68.9375 39.9688 68.3125 38.2188C67.7188 36.4375 66.75 34.8594 65.4062 33.4844C64.0625 32.0781 62.3438 30.9531 60.25 30.1094C58.1562 29.2344 55.6406 28.7969 52.7031 28.7969C48.8594 28.7969 45.5625 29.3906 42.8125 30.5781C40.0625 31.7656 37.8125 33.3594 36.0625 35.3594C34.3438 37.3594 33.0781 39.6875 32.2656 42.3438C31.4531 44.9688 31.0469 47.75 31.0469 50.6875C31.0469 52.8125 31.2188 54.6094 31.5625 56.0781C31.9375 57.5156 32.3438 58.7031 32.7812 59.6406C33.2188 60.5469 33.625 61.2188 34 61.6562C34.375 62.0938 34.5938 62.3438 34.6562 62.4062C35.1875 62.25 35.5625 62.3125 35.7812 62.5938C36 62.875 36.1094 63.25 36.1094 63.7188C36.1094 64.1562 35.9531 64.8125 35.6406 65.6875C35.3594 66.5625 34.9688 67.3906 34.4688 68.1719C33.9688 68.9219 33.3906 69.5 32.7344 69.9062C32.0781 70.2812 31.4062 70.2031 30.7188 69.6719C30.3438 69.3281 29.7656 68.7031 28.9844 67.7969C28.2031 66.8906 27.4219 65.6875 26.6406 64.1875C25.8906 62.6562 25.2188 60.8281 24.625 58.7031C24.0312 56.5469 23.7344 54.0625 23.7344 51.25C23.7344 46.75 24.4375 42.6875 25.8438 39.0625C27.25 35.4062 29.2188 32.2812 31.75 29.6875C34.3125 27.0938 37.3594 25.0938 40.8906 23.6875C44.4219 22.2812 48.3281 21.5781 52.6094 21.5781C56.2344 21.5781 59.5156 22.0781 62.4531 23.0781C65.4219 24.0469 67.9531 25.4688 70.0469 27.3438C72.1406 29.2188 73.75 31.5156 74.875 34.2344C76.0312 36.9219 76.6094 39.9688 76.6094 43.375C76.6094 46 76.2969 48.375 75.6719 50.5C75.0469 52.625 74.1719 54.5312 73.0469 56.2188C71.9531 57.9062 70.6406 59.4062 69.1094 60.7188C67.6094 62 65.9844 63.1094 64.2344 64.0469C65.6406 64.4531 66.9531 65.0625 68.1719 65.875C69.3906 66.6562 70.4531 67.6562 71.3594 68.875C72.2656 70.0938 72.9844 71.5312 73.5156 73.1875C74.0469 74.8125 74.3125 76.6562 74.3125 78.7188C74.3125 81.125 73.875 83.3438 73 85.375C72.1562 87.4062 70.9844 89.1562 69.4844 90.625C67.9844 92.0938 66.2031 93.2344 64.1406 94.0469C62.1094 94.8906 59.9062 95.3125 57.5312 95.3125C54.375 95.3125 51.75 94.8281 49.6562 93.8594C47.5625 92.9219 45.8906 91.5938 44.6406 89.875C43.3906 88.125 42.5 86.0469 41.9688 83.6406C41.4688 81.2031 41.2188 78.5 41.2188 75.5312V40.7031Z" fill="#FF7ABA"/>
</g>
<path d="M40.9844 38.7344L40.5065 38.8814L40.5115 38.8978L40.5177 38.9139L40.9844 38.7344ZM47.1719 37.2344L46.8435 37.6114L46.8499 37.617L46.8566 37.6224L47.1719 37.2344ZM53.6875 88L53.4796 88.4549L53.4905 88.4596L53.6875 88ZM61.1406 87.9531L60.9422 87.4942L60.9376 87.4962L61.1406 87.9531ZM62.7344 70.0469L62.4378 70.4494L62.4428 70.453L62.7344 70.0469ZM58.6562 68.2188L58.5349 68.704L58.5467 68.7066L58.6562 68.2188ZM53.3125 67.1406L52.9125 67.4406L52.9188 67.4491L52.9255 67.4572L53.3125 67.1406ZM52.1875 64.0938L51.693 64.1679L51.6936 64.1717L52.1875 64.0938ZM52.5625 61.0469L52.1464 60.7695L52.1407 60.7784L52.5625 61.0469ZM59.7344 59.2188L59.9223 59.6822L59.9328 59.6777L59.7344 59.2188ZM66.2031 54.1562L66.608 54.4498L66.6113 54.445L66.2031 54.1562ZM68.4062 49.6562L68.8815 49.8118L68.8823 49.8093L68.4062 49.6562ZM68.3125 38.2188L67.8381 38.3769L67.8416 38.3869L68.3125 38.2188ZM65.4062 33.4844L65.0447 33.8298L65.0487 33.8338L65.4062 33.4844ZM60.25 30.1094L60.0572 30.5707L60.0631 30.5731L60.25 30.1094ZM36.0625 35.3594L35.6862 35.0301L35.6833 35.0335L36.0625 35.3594ZM32.2656 42.3438L32.7433 42.4916L32.7438 42.49L32.2656 42.3438ZM31.5625 56.0781L31.0755 56.1921L31.0787 56.2043L31.5625 56.0781ZM32.7812 59.6406L32.3281 59.8521L32.331 59.858L32.7812 59.6406ZM34.6562 62.4062L34.3027 62.7598L34.5126 62.9697L34.7973 62.8859L34.6562 62.4062ZM35.6406 65.6875L35.1698 65.5193L35.1671 65.5269L35.1646 65.5345L35.6406 65.6875ZM34.4688 68.1719L34.8848 68.4493L34.8899 68.4414L34.4688 68.1719ZM32.7344 69.9062L32.9824 70.3404L32.9901 70.336L32.9976 70.3314L32.7344 69.9062ZM30.7188 69.6719L30.3809 70.0405L30.3964 70.0547L30.413 70.0675L30.7188 69.6719ZM26.6406 64.1875L26.1915 64.4075L26.1972 64.4185L26.6406 64.1875ZM24.625 58.7031L24.1429 58.8359L24.1434 58.8377L24.625 58.7031ZM25.8438 39.0625L26.3099 39.2433L26.3104 39.242L25.8438 39.0625ZM31.75 29.6875L31.3943 29.3361L31.3922 29.3383L31.75 29.6875ZM62.4531 23.0781L62.292 23.5515L62.298 23.5535L62.4531 23.0781ZM74.875 34.2344L74.4129 34.4256L74.4157 34.432L74.875 34.2344ZM73.0469 56.2188L72.6308 55.9414L72.6273 55.9468L73.0469 56.2188ZM69.1094 60.7188L69.4341 61.0989L69.4348 61.0984L69.1094 60.7188ZM64.2344 64.0469L63.9983 63.6061L62.9153 64.1863L64.0956 64.5272L64.2344 64.0469ZM68.1719 65.875L67.8945 66.2911L67.902 66.2959L68.1719 65.875ZM73.5156 73.1875L73.0395 73.3402L73.0404 73.3429L73.5156 73.1875ZM73 85.375L72.5408 85.1772L72.5383 85.1832L73 85.375ZM64.1406 94.0469L63.9573 93.5816L63.9488 93.5851L64.1406 94.0469ZM49.6562 93.8594L49.8662 93.4056L49.8606 93.403L49.6562 93.8594ZM44.6406 89.875L44.2337 90.1656L44.2363 90.1691L44.6406 89.875ZM41.9688 83.6406L41.4789 83.7411L41.4805 83.7484L41.9688 83.6406ZM41.7188 40.7031C41.7188 39.7874 41.6424 39.0524 41.451 38.5549L40.5177 38.9139C40.6389 39.2289 40.7188 39.8064 40.7188 40.7031H41.7188ZM41.4623 38.5873C41.3486 38.2179 41.2969 37.8931 41.2969 37.6094H40.2969C40.2969 38.0131 40.3701 38.4383 40.5065 38.8814L41.4623 38.5873ZM41.2969 37.6094C41.2969 37.3584 41.4149 37.1096 41.8119 36.8615L41.2819 36.0135C40.6788 36.3904 40.2969 36.9228 40.2969 37.6094H41.2969ZM41.8119 36.8615C42.22 36.6064 42.7185 36.4688 43.3281 36.4688V35.4688C42.5627 35.4688 41.8738 35.6436 41.2819 36.0135L41.8119 36.8615ZM43.3281 36.4688C44.8313 36.4688 45.9862 36.8647 46.8435 37.6114L47.5003 36.8573C46.4201 35.9165 45.0125 35.4688 43.3281 35.4688V36.4688ZM46.8566 37.6224C47.7511 38.3492 48.1719 39.2115 48.1719 40.2344H49.1719C49.1719 38.8823 48.5927 37.7445 47.4872 36.8463L46.8566 37.6224ZM48.1719 40.2344V75.8125H49.1719V40.2344H48.1719ZM48.1719 75.8125C48.1719 78.1495 48.3611 80.1582 48.7472 81.8312L49.7216 81.6063C49.3576 80.0293 49.1719 78.1005 49.1719 75.8125H48.1719ZM48.7472 81.8312C49.1329 83.5025 49.7178 84.8976 50.5175 85.9972L51.3262 85.409C50.6259 84.4461 50.0859 83.185 49.7216 81.6063L48.7472 81.8312ZM50.5175 85.9972C51.3149 87.0937 52.3029 87.9168 53.4796 88.4547L53.8954 87.5453C52.8846 87.0832 52.0288 86.3751 51.3262 85.409L50.5175 85.9972ZM53.4905 88.4596C54.6568 88.9594 55.9757 89.2031 57.4375 89.2031V88.2031C56.0868 88.2031 54.9057 87.9781 53.8845 87.5404L53.4905 88.4596ZM57.4375 89.2031C58.8447 89.2031 60.1491 88.941 61.3437 88.41L60.9376 87.4962C59.8821 87.9653 58.7178 88.2031 57.4375 88.2031V89.2031ZM61.3391 88.4121C62.5538 87.8868 63.6092 87.162 64.5005 86.2377L63.7807 85.5436C62.9845 86.3692 62.04 87.0195 60.9422 87.4942L61.3391 88.4121ZM64.5005 86.2377C65.392 85.3133 66.0829 84.2257 66.5745 82.9805L65.6443 82.6133C65.1983 83.7431 64.5768 84.718 63.7807 85.5436L64.5005 86.2377ZM66.5745 82.9805C67.0685 81.7288 67.3125 80.369 67.3125 78.9062H66.3125C66.3125 80.256 66.0877 81.4899 65.6443 82.6133L66.5745 82.9805ZM67.3125 78.9062C67.3125 76.695 66.9283 74.8129 66.1308 73.2843L65.2442 73.7469C65.9467 75.0934 66.3125 76.805 66.3125 78.9062H67.3125ZM66.1308 73.2843C65.3476 71.7832 64.3133 70.565 63.026 69.6407L62.4428 70.453C63.5929 71.2788 64.5274 72.373 65.2442 73.7469L66.1308 73.2843ZM63.031 69.6443C61.7842 68.7257 60.3602 68.0888 58.7658 67.7309L58.5467 68.7066C60.0148 69.0362 61.3096 69.6181 62.4378 70.4494L63.031 69.6443ZM58.7775 67.7337C57.2391 67.3491 55.6984 67.1562 54.1562 67.1562V68.1562C55.6141 68.1562 57.0734 68.3384 58.535 68.7038L58.7775 67.7337ZM54.1562 67.1562C54.0943 67.1562 53.9407 67.1189 53.6995 66.824L52.9255 67.4572C53.2468 67.8499 53.6557 68.1562 54.1562 68.1562V67.1562ZM53.7125 66.8406C53.4672 66.5135 53.2548 66.1075 53.0809 65.6148L52.1379 65.9477C52.339 66.5175 52.5953 67.0178 52.9125 67.4406L53.7125 66.8406ZM53.0809 65.6148C52.9042 65.1142 52.7707 64.5814 52.6814 64.0158L51.6936 64.1717C51.7918 64.7936 51.9396 65.3858 52.1379 65.9477L53.0809 65.6148ZM52.682 64.0196C52.5936 63.4308 52.5807 62.8978 52.6372 62.4178L51.644 62.301C51.5755 62.8834 51.5939 63.5067 51.693 64.1679L52.682 64.0196ZM52.6372 62.4178C52.6935 61.9389 52.8166 61.5789 52.9843 61.3153L52.1407 60.7784C51.8709 61.2023 51.7127 61.7174 51.644 62.301L52.6372 62.4178ZM52.9785 61.3242C53.1245 61.1053 53.3332 60.9844 53.6875 60.9844V59.9844C53.0418 59.9844 52.5005 60.2384 52.1465 60.7695L52.9785 61.3242ZM53.6875 60.9844C54.4762 60.9844 55.4133 60.8861 56.4931 60.6955L56.3194 59.7107C55.2742 59.8952 54.3988 59.9844 53.6875 59.9844V60.9844ZM56.4931 60.6955C57.5951 60.5011 58.7384 60.1621 59.9222 59.6821L59.5465 58.7554C58.4179 59.2129 57.3424 59.5302 56.3194 59.7107L56.4931 60.6955ZM59.9328 59.6777C61.1255 59.1619 62.2975 58.4869 63.449 57.6553L62.8635 56.8447C61.765 57.6381 60.6557 58.2756 59.5359 58.7598L59.9328 59.6777ZM63.449 57.6553C64.6216 56.8085 65.674 55.7379 66.6079 54.4497L65.7983 53.8628C64.9198 55.0746 63.9409 56.0665 62.8635 56.8447L63.449 57.6553ZM66.6113 54.445C67.5505 53.1173 68.3057 51.5709 68.8814 49.8118L67.9311 49.5007C67.3818 51.1791 66.6683 52.6327 65.7949 53.8675L66.6113 54.445ZM68.8823 49.8093C69.4641 47.999 69.75 45.9142 69.75 43.5625H68.75C68.75 45.8358 68.4734 47.8135 67.9302 49.5032L68.8823 49.8093ZM69.75 43.5625C69.75 41.6912 69.4272 39.8532 68.7834 38.0506L67.8416 38.3869C68.4478 40.0843 68.75 41.8088 68.75 43.5625H69.75ZM68.7868 38.0606C68.1686 36.2058 67.1592 34.5627 65.7638 33.1349L65.0487 33.8338C66.3408 35.1561 67.2689 36.6692 67.8382 38.3769L68.7868 38.0606ZM65.7677 33.1389C64.3676 31.6737 62.5861 30.5117 60.4369 29.6456L60.0631 30.5731C62.1014 31.3945 63.7574 32.4826 65.0448 33.8298L65.7677 33.1389ZM60.4428 29.648C58.2729 28.7412 55.6882 28.2969 52.7031 28.2969V29.2969C55.5931 29.2969 58.0396 29.7275 60.0572 30.5707L60.4428 29.648ZM52.7031 28.2969C48.8097 28.2969 45.4419 28.8981 42.6143 30.1191L43.0107 31.0372C45.6831 29.8832 48.909 29.2969 52.7031 29.2969V28.2969ZM42.6143 30.1191C39.8047 31.3323 37.4911 32.9674 35.6862 35.0301L36.4388 35.6886C38.1339 33.7513 40.3203 32.1989 43.0107 31.0372L42.6143 30.1191ZM35.6833 35.0335C33.9171 37.0887 32.6191 39.4788 31.7875 42.1975L32.7438 42.49C33.5371 39.8962 34.7704 37.6301 36.4417 35.6853L35.6833 35.0335ZM31.788 42.1959C30.9597 44.872 30.5469 47.7033 30.5469 50.6875H31.5469C31.5469 47.7967 31.9466 45.0655 32.7433 42.4916L31.788 42.1959ZM30.5469 50.6875C30.5469 52.8366 30.7204 54.6743 31.0757 56.1921L32.0493 55.9642C31.7171 54.5445 31.5469 52.7884 31.5469 50.6875H30.5469ZM31.0787 56.2043C31.4583 57.6596 31.8737 58.8782 32.3282 59.8521L33.2343 59.4292C32.8138 58.5281 32.4167 57.3716 32.0463 55.9519L31.0787 56.2043ZM32.331 59.858C32.7755 60.7788 33.2039 61.4957 33.6204 61.9816L34.3796 61.3309C34.0461 60.9418 33.662 60.3149 33.2315 59.4233L32.331 59.858ZM33.6204 61.9816C33.987 62.4094 34.2227 62.6798 34.3027 62.7598L35.0098 62.0527C34.9648 62.0077 34.763 61.7781 34.3796 61.3309L33.6204 61.9816ZM34.7973 62.8859C35.2568 62.7508 35.3585 62.8647 35.3866 62.9007L36.1759 62.2868C35.7665 61.7603 35.1182 61.7492 34.5152 61.9266L34.7973 62.8859ZM35.3866 62.9007C35.5182 63.07 35.6094 63.326 35.6094 63.7188H36.6094C36.6094 63.174 36.4818 62.68 36.1759 62.2868L35.3866 62.9007ZM35.6094 63.7188C35.6094 64.0644 35.4797 64.6516 35.1698 65.5193L36.1115 65.8557C36.4266 64.9734 36.6094 64.2481 36.6094 63.7188H35.6094ZM35.1646 65.5345C34.8967 66.3681 34.5246 67.1571 34.0476 67.9023L34.8899 68.4414C35.4129 67.6242 35.8221 66.7569 36.1166 65.8405L35.1646 65.5345ZM34.0527 67.8945C33.5859 68.5948 33.0571 69.1184 32.4712 69.4811L32.9976 70.3314C33.7242 69.8816 34.3516 69.2489 34.8848 68.4492L34.0527 67.8945ZM32.4863 69.4721C32.2394 69.6132 32.0136 69.6576 31.796 69.6323C31.5727 69.6063 31.3164 69.5018 31.0245 69.2762L30.413 70.0675C30.8086 70.3732 31.232 70.5734 31.6805 70.6256C32.1348 70.6784 32.5731 70.5743 32.9824 70.3404L32.4863 69.4721ZM31.0566 69.3033C30.7054 68.9813 30.144 68.3762 29.3631 67.4704L28.6057 68.1233C29.3873 69.03 29.9821 69.6749 30.3809 70.0405L31.0566 69.3033ZM29.3631 67.4704C28.615 66.6026 27.8542 65.4352 27.0841 63.9565L26.1972 64.4185C26.9895 65.9398 27.7913 67.1786 28.6057 68.1233L29.3631 67.4704ZM27.0897 63.9676C26.3563 62.4703 25.6943 60.6722 25.1066 58.5686L24.1434 58.8377C24.7432 60.984 25.4249 62.8422 26.1916 64.4074L27.0897 63.9676ZM25.1071 58.5704C24.5278 56.4668 24.2344 54.0286 24.2344 51.25H23.2344C23.2344 54.0964 23.5347 56.6269 24.1429 58.8359L25.1071 58.5704ZM24.2344 51.25C24.2344 46.8023 24.9292 42.8024 26.3099 39.2433L25.3776 38.8817C23.9458 42.5726 23.2344 46.6977 23.2344 51.25H24.2344ZM26.3104 39.242C27.6943 35.6439 29.6277 32.578 32.1078 30.0367L31.3922 29.3383C28.8098 31.9845 26.8057 35.1686 25.3771 38.883L26.3104 39.242ZM32.1057 30.0389C34.6176 27.4963 37.6057 25.5339 41.0756 24.152L40.7056 23.223C37.1131 24.6536 34.0074 26.6912 31.3943 29.3361L32.1057 30.0389ZM41.0756 24.152C44.541 22.772 48.3835 22.0781 52.6094 22.0781V21.0781C48.2727 21.0781 44.3027 21.7905 40.7056 23.223L41.0756 24.152ZM52.6094 22.0781C56.1886 22.0781 59.4143 22.5718 62.292 23.5514L62.6143 22.6048C59.617 21.5844 56.2802 21.0781 52.6094 21.0781V22.0781ZM62.298 23.5535C65.2082 24.5031 67.6767 25.8924 69.7133 27.7162L70.3804 26.9713C68.2295 25.0451 65.6356 23.5907 62.6082 22.6028L62.298 23.5535ZM69.7133 27.7162C71.7486 29.5388 73.3153 31.7728 74.413 34.4256L75.337 34.0432C74.1847 31.2585 72.5327 28.8987 70.3804 26.9713L69.7133 27.7162ZM74.4157 34.432C75.5411 37.0477 76.1094 40.0257 76.1094 43.375H77.1094C77.1094 39.9118 76.5214 36.7961 75.3343 34.0368L74.4157 34.432ZM76.1094 43.375C76.1094 45.9608 75.8015 48.2873 75.1922 50.3589L76.1516 50.6411C76.7923 48.4627 77.1094 46.0392 77.1094 43.375H76.1094ZM75.1922 50.3589C74.5801 52.44 73.7254 54.2995 72.6308 55.9414L73.4629 56.4961C74.6183 54.763 75.5136 52.81 76.1516 50.6411L75.1922 50.3589ZM72.6273 55.9468C71.5597 57.594 70.2789 59.0577 68.784 60.3391L69.4348 61.0984C71.0023 59.7548 72.3466 58.2185 73.4665 56.4907L72.6273 55.9468ZM68.7846 60.3386C67.3121 61.5964 65.7168 62.6855 63.9983 63.6061L64.4705 64.4876C66.2519 63.5333 67.9067 62.4036 69.4341 61.0989L68.7846 60.3386ZM64.0956 64.5272C65.4526 64.9193 66.7184 65.5069 67.8945 66.291L68.4492 65.459C67.1879 64.6181 65.8286 63.987 64.3731 63.5665L64.0956 64.5272ZM67.902 66.2959C69.0675 67.043 70.0861 68.0007 70.9581 69.1734L71.7606 68.5766C70.8201 67.3118 69.7138 66.2695 68.4417 65.4541L67.902 66.2959ZM70.9581 69.1734C71.8272 70.3421 72.5227 71.7288 73.0395 73.3402L73.9917 73.0348C73.4461 71.3337 72.704 69.8454 71.7606 68.5766L70.9581 69.1734ZM73.0404 73.3429C73.5522 74.9086 73.8125 76.6985 73.8125 78.7188H74.8125C74.8125 76.614 74.5415 74.7164 73.9909 73.0321L73.0404 73.3429ZM73.8125 78.7188C73.8125 81.063 73.3866 83.2137 72.5408 85.1772L73.4592 85.5728C74.3634 83.4738 74.8125 81.187 74.8125 78.7188H73.8125ZM72.5383 85.1832C71.7191 87.1553 70.5842 88.8483 69.1346 90.2677L69.8342 90.9823C71.3845 89.4642 72.5934 87.6572 73.4617 85.5668L72.5383 85.1832ZM69.1346 90.2677C67.6849 91.6872 65.9612 92.7923 63.9574 93.5817L64.3239 94.5121C66.445 93.6765 68.2838 92.5003 69.8342 90.9823L69.1346 90.2677ZM63.9488 93.5851C61.9831 94.4017 59.8457 94.8125 57.5312 94.8125V95.8125C59.9668 95.8125 62.2357 95.3796 64.3324 94.5086L63.9488 93.5851ZM57.5312 94.8125C54.4224 94.8125 51.8746 94.3349 49.8662 93.4056L49.4463 94.3132C51.6254 95.3214 54.3276 95.8125 57.5312 95.8125V94.8125ZM49.8606 93.403C47.84 92.4983 46.2396 91.2235 45.045 89.5809L44.2363 90.1691C45.5417 91.964 47.285 93.3455 49.4519 94.3157L49.8606 93.403ZM45.0475 89.5844C43.842 87.8966 42.9758 85.8828 42.457 83.5328L41.4805 83.7484C42.0242 86.2109 42.9393 88.3534 44.2338 90.1656L45.0475 89.5844ZM42.4586 83.5402C41.9665 81.1413 41.7188 78.4725 41.7188 75.5312H40.7188C40.7188 78.5275 40.971 81.2649 41.4789 83.7411L42.4586 83.5402ZM41.7188 75.5312V40.7031H40.7188V75.5312H41.7188Z" fill="white" fill-opacity="0.84"/>
<defs>
<filter id="filter0_i_113_376" x="23.7344" y="21.5781" width="52.875" height="77.7344" filterUnits="userSpaceOnUse" color-interpolation-filters="sRGB">
<feFlood flood-opacity="0" result="BackgroundImageFix"/>
<feBlend mode="normal" in="SourceGraphic" in2="BackgroundImageFix" result="shape"/>
<feColorMatrix in="SourceAlpha" type="matrix" values="0 0 0 0 0 0 0 0 0 0 0 0 0 0 0 0 0 0 127 0" result="hardAlpha"/>
<feOffset dy="4"/>
<feGaussianBlur stdDeviation="2"/>
<feComposite in2="hardAlpha" operator="arithmetic" k2="-1" k3="1"/>
<feColorMatrix type="matrix" values="0 0 0 0 0 0 0 0 0 0 0 0 0 0 0 0 0 0 0.25 0"/>
<feBlend mode="normal" in2="shape" result="effect1_innerShadow_113_376"/>
</filter>
</defs>
</svg>
