<svg width="178" height="50" viewBox="0 0 178 50" fill="none" xmlns="http://www.w3.org/2000/svg">
<rect width="50" height="50" fill="black"/>
<path d="M10.5 36.875H13.29V26.525H23.55V36.875H26.31V14.885H23.55V24.095H13.29V14.885H10.5V36.875ZM37.1862 37.295C38.2062 37.295 39.2862 36.995 40.1862 36.665L39.6462 34.625C39.1362 34.835 38.3862 35.075 37.8162 35.075C35.9262 35.075 35.2962 33.905 35.2962 31.925V22.805H39.7062V20.585H35.2962V15.995H32.9862L32.6862 20.585L30.1362 20.765V22.805H32.5662V31.865C32.5662 35.105 33.7062 37.295 37.1862 37.295Z" fill="#617E89"/>
<path d="M61.344 16H62.982V11.324H67.392V16H69.016V5.696H67.392V9.91H62.982V5.696H61.344V16ZM74.171 16.196C74.745 16.196 75.263 16.042 75.697 15.902L75.403 14.712C75.165 14.81 74.843 14.908 74.577 14.908C73.779 14.908 73.443 14.418 73.443 13.508V9.588H75.459V8.3H73.443V6.172H72.099L71.917 8.3L70.713 8.384V9.588H71.833V13.494C71.833 15.104 72.449 16.196 74.171 16.196ZM77.1317 16H78.7557V10.54C79.3717 9.84 79.9597 9.504 80.4777 9.504C81.3597 9.504 81.7657 10.022 81.7657 11.366V16H83.3757V10.54C84.0197 9.84 84.5797 9.504 85.1117 9.504C85.9797 9.504 86.3857 10.022 86.3857 11.366V16H87.9957V11.156C87.9957 9.21 87.2537 8.104 85.6437 8.104C84.6777 8.104 83.8937 8.72 83.1237 9.518C82.8017 8.636 82.1577 8.104 81.0097 8.104C80.0577 8.104 79.2877 8.678 78.6297 9.378H78.5877L78.4477 8.3H77.1317V16ZM91.9488 16.196C92.3548 16.196 92.6068 16.126 92.8168 16.056L92.6068 14.838C92.4668 14.866 92.4108 14.866 92.3408 14.866C92.1448 14.866 91.9628 14.712 91.9628 14.278V4.856H90.3388V14.194C90.3388 15.44 90.7728 16.196 91.9488 16.196Z" fill="black"/>
<rect x="60" y="37" width="10" height="10" fill="#415A63"/>
<rect x="60" y="37" width="10" height="10" fill="#415A63"/>
<rect x="72" y="37" width="10" height="10" fill="#415A63"/>
<rect x="84" y="37" width="10" height="10" fill="#415A63"/>
<rect x="96" y="37" width="10" height="10" fill="#415A63"/>
<rect x="108" y="37" width="10" height="10" fill="#415A63"/>
<rect x="120" y="37" width="10" height="10" fill="#415A63"/>
<rect x="132" y="37" width="10" height="10" fill="#415A63"/>
<rect x="144" y="37" width="10" height="10" fill="#415A63"/>
<rect x="156" y="37" width="10" height="10" fill="#415A63"/>
<rect x="168" y="37" width="10" height="10" fill="#D9D9D9"/>
</svg>
