<svg width="57" height="89" viewBox="0 0 57 89" fill="none" xmlns="http://www.w3.org/2000/svg">
<rect width="56.1798" height="56.1798" fill="black"/>
<path d="M24.067 38.5267C27.037 38.5267 29.437 37.4467 30.877 35.9767V26.7367H23.647V29.0467H28.297V34.8067C27.457 35.5867 25.927 36.0667 24.337 36.0667C19.627 36.0667 17.017 32.6167 17.017 27.0667C17.017 21.5767 19.867 18.1567 24.307 18.1567C26.527 18.1567 27.937 19.0867 29.047 20.2267L30.577 18.4267C29.287 17.1067 27.277 15.7267 24.247 15.7267C18.427 15.7267 14.167 20.0467 14.167 27.1267C14.167 34.2667 18.307 38.5267 24.067 38.5267ZM35.8706 38.1067H38.6006V21.8167H35.8706V38.1067ZM37.2506 18.4567C38.3006 18.4567 39.0806 17.7667 39.0806 16.6267C39.0806 15.5767 38.3006 14.8867 37.2506 14.8867C36.1706 14.8867 35.4206 15.5767 35.4206 16.6267C35.4206 17.7667 36.1706 18.4567 37.2506 18.4567Z" fill="#617E89"/>
<path d="M11.558 83.196C12.958 83.196 14.134 82.678 14.82 81.978V77.512H11.306V78.856H13.336V81.264C12.986 81.586 12.356 81.768 11.726 81.768C9.598 81.768 8.464 80.27 8.464 77.82C8.464 75.412 9.724 73.928 11.656 73.928C12.636 73.928 13.266 74.334 13.784 74.852L14.666 73.802C14.036 73.158 13.056 72.514 11.6 72.514C8.87 72.514 6.784 74.516 6.784 77.876C6.784 81.264 8.814 83.196 11.558 83.196ZM17.0204 83H18.6444V75.3H17.0204V83ZM17.8324 73.858C18.4204 73.858 18.8404 73.48 18.8404 72.892C18.8404 72.318 18.4204 71.94 17.8324 71.94C17.2304 71.94 16.8384 72.318 16.8384 72.892C16.8384 73.48 17.2304 73.858 17.8324 73.858ZM23.6436 83.196C24.2176 83.196 24.7356 83.042 25.1696 82.902L24.8756 81.712C24.6376 81.81 24.3156 81.908 24.0496 81.908C23.2516 81.908 22.9156 81.418 22.9156 80.508V76.588H24.9316V75.3H22.9156V73.172H21.5716L21.3896 75.3L20.1856 75.384V76.588H21.3056V80.494C21.3056 82.104 21.9216 83.196 23.6436 83.196ZM26.6044 83H28.2284V77.54C28.9004 76.868 29.3904 76.504 30.1044 76.504C31.0004 76.504 31.3924 77.022 31.3924 78.366V83H33.0164V78.156C33.0164 76.21 32.2884 75.104 30.6504 75.104C29.6004 75.104 28.8164 75.678 28.1584 76.322L28.2284 74.796V71.856H26.6044V83ZM37.5677 83.196C38.6317 83.196 39.3737 82.65 40.0737 81.838H40.1157L40.2417 83H41.5717V75.3H39.9617V80.648C39.3177 81.46 38.8277 81.796 38.1137 81.796C37.2037 81.796 36.8117 81.278 36.8117 79.948V75.3H35.2017V80.144C35.2017 82.104 35.9297 83.196 37.5677 83.196ZM47.5793 83.196C49.3153 83.196 50.8973 81.67 50.8973 79.024C50.8973 76.658 49.7913 75.104 47.8453 75.104C47.0193 75.104 46.2073 75.538 45.5353 76.112L45.6053 74.796V71.856H43.9813V83H45.2553L45.3953 82.202H45.4513C46.0953 82.832 46.8793 83.196 47.5793 83.196ZM47.2713 81.852C46.7953 81.852 46.1793 81.67 45.6053 81.152V77.386C46.2353 76.77 46.8233 76.448 47.4113 76.448C48.6993 76.448 49.2313 77.442 49.2313 79.052C49.2313 80.858 48.3773 81.852 47.2713 81.852Z" fill="black"/>
</svg>
