<svg width="178" height="50" viewBox="0 0 178 50" fill="none" xmlns="http://www.w3.org/2000/svg">
<rect width="50" height="50" fill="black"/>
<path d="M16.02 38H19.23L26.25 16.01H23.4L19.89 27.92C19.11 30.53 18.57 32.6 17.76 35.21H17.61C16.8 32.6 16.26 30.53 15.48 27.92L11.94 16.01H9L16.02 38ZM32.6426 38.42C34.8926 38.42 36.5126 37.22 38.0426 35.45H38.1026L38.3426 38H40.5926V21.71H37.8626V33.29C36.3326 35.21 35.1326 36.02 33.4826 36.02C31.3226 36.02 30.3926 34.73 30.3926 31.7V21.71H27.6626V32.03C27.6626 36.2 29.2226 38.42 32.6426 38.42Z" fill="#617E89"/>
<path d="M63.192 16H65.124L68.344 5.696H66.678L65.166 11.03C64.83 12.22 64.592 13.214 64.228 14.404H64.158C63.808 13.214 63.556 12.22 63.22 11.03L61.694 5.696H59.972L63.192 16ZM71.2513 16.196C72.3153 16.196 73.0573 15.65 73.7573 14.838H73.7993L73.9253 16H75.2553V8.3H73.6453V13.648C73.0013 14.46 72.5113 14.796 71.7973 14.796C70.8873 14.796 70.4953 14.278 70.4953 12.948V8.3H68.8853V13.144C68.8853 15.104 69.6133 16.196 71.2513 16.196ZM80.8849 16.196C81.8929 16.196 82.7749 15.86 83.4889 15.384L82.9289 14.348C82.3549 14.712 81.7809 14.922 81.0949 14.922C79.7649 14.922 78.8409 14.054 78.7149 12.584H83.7129C83.7549 12.388 83.7829 12.08 83.7829 11.758C83.7829 9.574 82.6769 8.104 80.6469 8.104C78.8549 8.104 77.1329 9.658 77.1329 12.164C77.1329 14.698 78.7849 16.196 80.8849 16.196ZM78.6869 11.464C78.8549 10.12 79.7089 9.378 80.6749 9.378C81.7949 9.378 82.3829 10.134 82.3829 11.464H78.6869Z" fill="black"/>
<rect x="60" y="37" width="10" height="10" fill="#415A63"/>
<rect x="60" y="37" width="10" height="10" fill="#415A63"/>
<rect x="72" y="37" width="10" height="10" fill="#415A63"/>
<rect x="84" y="37" width="10" height="10" fill="#415A63"/>
<rect x="96" y="37" width="10" height="10" fill="#415A63"/>
<rect x="108" y="37" width="10" height="10" fill="#415A63"/>
<rect x="120" y="37" width="10" height="10" fill="#415A63"/>
<rect x="132" y="37" width="10" height="10" fill="#415A63"/>
<rect x="144" y="37" width="10" height="10" fill="#415A63"/>
<rect x="156" y="37" width="10" height="10" fill="#D9D9D9"/>
<rect x="168" y="37" width="10" height="10" fill="#D9D9D9"/>
</svg>
