<svg width="178" height="51" viewBox="0 0 178 51" fill="none" xmlns="http://www.w3.org/2000/svg">
<rect y="1" width="50" height="50" fill="black"/>
<path d="M11 37.25H18.02C22.91 37.25 26.33 35.12 26.33 30.83C26.33 27.83 24.5 26.06 21.86 25.55V25.43C23.93 24.74 25.07 22.82 25.07 20.66C25.07 16.79 21.98 15.26 17.51 15.26H11V37.25ZM13.79 24.62V17.45H17.18C20.6 17.45 22.34 18.41 22.34 20.99C22.34 23.24 20.81 24.62 17.03 24.62H13.79ZM13.79 35.06V26.75H17.63C21.47 26.75 23.63 28.01 23.63 30.74C23.63 33.71 21.38 35.06 17.63 35.06H13.79ZM34.7368 37.67C38.5768 37.67 40.6468 35.48 40.6468 32.81C40.6468 29.72 38.0668 28.76 35.6968 27.86C33.8368 27.2 32.1868 26.6 32.1868 25.04C32.1868 23.78 33.1168 22.7 35.1868 22.7C36.6268 22.7 37.7968 23.33 38.9068 24.14L40.2268 22.4C38.9668 21.38 37.1668 20.57 35.1568 20.57C31.6168 20.57 29.5468 22.58 29.5468 25.16C29.5468 27.95 32.0368 29.03 34.2868 29.9C36.0868 30.56 38.0368 31.31 38.0368 32.96C38.0368 34.4 36.9568 35.54 34.7968 35.54C32.8468 35.54 31.4068 34.73 29.9968 33.59L28.6468 35.42C30.1768 36.68 32.4268 37.67 34.7368 37.67Z" fill="#617E89"/>
<path d="M61.344 16H64.802C67.084 16 68.736 15.02 68.736 12.976C68.736 11.59 67.896 10.778 66.72 10.526V10.47C67.644 10.148 68.176 9.224 68.176 8.23C68.176 6.368 66.65 5.696 64.55 5.696H61.344V16ZM62.982 9.994V6.97H64.41C65.852 6.97 66.58 7.376 66.58 8.454C66.58 9.406 65.936 9.994 64.368 9.994H62.982ZM62.982 14.726V11.226H64.62C66.258 11.226 67.14 11.744 67.14 12.906C67.14 14.152 66.216 14.726 64.62 14.726H62.982ZM73.6359 16.196C75.5399 16.196 77.2619 14.712 77.2619 12.164C77.2619 9.588 75.5399 8.104 73.6359 8.104C71.7179 8.104 70.0099 9.588 70.0099 12.164C70.0099 14.712 71.7179 16.196 73.6359 16.196ZM73.6359 14.866C72.4179 14.866 71.6759 13.788 71.6759 12.164C71.6759 10.526 72.4179 9.448 73.6359 9.448C74.8399 9.448 75.6099 10.526 75.6099 12.164C75.6099 13.788 74.8399 14.866 73.6359 14.866ZM82.2492 16.196C84.1532 16.196 85.8752 14.712 85.8752 12.164C85.8752 9.588 84.1532 8.104 82.2492 8.104C80.3312 8.104 78.6232 9.588 78.6232 12.164C78.6232 14.712 80.3312 16.196 82.2492 16.196ZM82.2492 14.866C81.0312 14.866 80.2892 13.788 80.2892 12.164C80.2892 10.526 81.0312 9.448 82.2492 9.448C83.4532 9.448 84.2232 10.526 84.2232 12.164C84.2232 13.788 83.4532 14.866 82.2492 14.866ZM89.9893 16.196C90.5633 16.196 91.0813 16.042 91.5153 15.902L91.2213 14.712C90.9833 14.81 90.6613 14.908 90.3953 14.908C89.5973 14.908 89.2613 14.418 89.2613 13.508V9.588H91.2773V8.3H89.2613V6.172H87.9173L87.7353 8.3L86.5313 8.384V9.588H87.6513V13.494C87.6513 15.104 88.2673 16.196 89.9893 16.196ZM94.8313 16.196C96.7213 16.196 97.7433 15.146 97.7433 13.844C97.7433 12.402 96.5673 11.912 95.4893 11.506C94.6353 11.198 93.8933 10.946 93.8933 10.288C93.8933 9.756 94.2853 9.336 95.1393 9.336C95.7693 9.336 96.3153 9.63 96.8473 10.008L97.6033 9.014C96.9873 8.524 96.1333 8.104 95.1113 8.104C93.3893 8.104 92.3533 9.07 92.3533 10.358C92.3533 11.674 93.4873 12.22 94.5233 12.612C95.3493 12.92 96.2173 13.242 96.2173 13.928C96.2173 14.516 95.7833 14.964 94.8733 14.964C94.0333 14.964 93.3753 14.614 92.6893 14.082L91.9333 15.132C92.6753 15.748 93.7673 16.196 94.8313 16.196ZM101.665 16.196C102.239 16.196 102.757 16.042 103.191 15.902L102.897 14.712C102.659 14.81 102.337 14.908 102.071 14.908C101.273 14.908 100.937 14.418 100.937 13.508V9.588H102.953V8.3H100.937V6.172H99.5931L99.4111 8.3L98.2071 8.384V9.588H99.3271V13.494C99.3271 15.104 99.9431 16.196 101.665 16.196ZM104.626 16H106.25V11.212C106.726 9.994 107.482 9.546 108.098 9.546C108.42 9.546 108.616 9.588 108.882 9.672L109.162 8.272C108.924 8.16 108.686 8.104 108.308 8.104C107.482 8.104 106.67 8.692 106.124 9.686H106.082L105.942 8.3H104.626V16ZM111.723 16.196C112.647 16.196 113.473 15.734 114.173 15.132H114.229L114.355 16H115.685V11.38C115.685 9.322 114.803 8.104 112.885 8.104C111.653 8.104 110.561 8.622 109.777 9.112L110.379 10.218C111.023 9.798 111.793 9.42 112.605 9.42C113.725 9.42 114.047 10.204 114.061 11.1C110.869 11.45 109.469 12.304 109.469 13.956C109.469 15.314 110.407 16.196 111.723 16.196ZM112.227 14.908C111.541 14.908 111.023 14.6 111.023 13.844C111.023 12.976 111.779 12.402 114.061 12.136V14.012C113.431 14.6 112.899 14.908 112.227 14.908ZM117.956 19.122H119.58V16.63L119.524 15.328C120.168 15.888 120.868 16.196 121.554 16.196C123.29 16.196 124.872 14.67 124.872 12.038C124.872 9.658 123.766 8.104 121.82 8.104C120.952 8.104 120.126 8.58 119.454 9.154H119.412L119.272 8.3H117.956V19.122ZM121.246 14.852C120.77 14.852 120.182 14.67 119.58 14.152V10.386C120.224 9.77 120.798 9.448 121.386 9.448C122.674 9.448 123.206 10.442 123.206 12.052C123.206 13.858 122.352 14.852 121.246 14.852Z" fill="black"/>
<rect x="60" y="37" width="10" height="10" fill="#415A63"/>
<rect x="60" y="37" width="10" height="10" fill="#415A63"/>
<rect x="72" y="37" width="10" height="10" fill="#415A63"/>
<rect x="84" y="37" width="10" height="10" fill="#415A63"/>
<rect x="96" y="37" width="10" height="10" fill="#415A63"/>
<rect x="108" y="37" width="10" height="10" fill="#415A63"/>
<rect x="120" y="37" width="10" height="10" fill="#415A63"/>
<rect x="132" y="37" width="10" height="10" fill="#D9D9D9"/>
<rect x="144" y="37" width="10" height="10" fill="#D9D9D9"/>
<rect x="156" y="37" width="10" height="10" fill="#D9D9D9"/>
<rect x="168" y="37" width="10" height="10" fill="#D9D9D9"/>
</svg>
