<svg width="178" height="52" viewBox="0 0 178 52" fill="none" xmlns="http://www.w3.org/2000/svg">
<rect y="2" width="50" height="50" fill="black"/>
<path d="M18.81 39.92C21.66 39.92 23.79 38.78 25.53 36.74L24.03 35C22.62 36.56 21 37.46 18.93 37.46C14.73 37.46 12.09 34.01 12.09 28.46C12.09 22.97 14.85 19.55 19.02 19.55C20.88 19.55 22.35 20.39 23.49 21.62L25.02 19.82C23.73 18.41 21.66 17.12 18.99 17.12C13.41 17.12 9.24 21.44 9.24 28.52C9.24 35.66 13.32 39.92 18.81 39.92ZM33.6509 39.92C37.4909 39.92 39.5609 37.73 39.5609 35.06C39.5609 31.97 36.9809 31.01 34.6109 30.11C32.7509 29.45 31.1009 28.85 31.1009 27.29C31.1009 26.03 32.0309 24.95 34.1009 24.95C35.5409 24.95 36.7109 25.58 37.8209 26.39L39.1409 24.65C37.8809 23.63 36.0809 22.82 34.0709 22.82C30.5309 22.82 28.4609 24.83 28.4609 27.41C28.4609 30.2 30.9509 31.28 33.2009 32.15C35.0009 32.81 36.9509 33.56 36.9509 35.21C36.9509 36.65 35.8709 37.79 33.7109 37.79C31.7609 37.79 30.3209 36.98 28.9109 35.84L27.5609 37.67C29.0909 38.93 31.3409 39.92 33.6509 39.92Z" fill="#617E89"/>
<path d="M65.362 16.196C66.706 16.196 67.756 15.664 68.582 14.698L67.7 13.676C67.098 14.348 66.37 14.768 65.432 14.768C63.612 14.768 62.464 13.27 62.464 10.82C62.464 8.412 63.696 6.928 65.474 6.928C66.314 6.928 66.958 7.306 67.49 7.852L68.358 6.802C67.728 6.13 66.734 5.514 65.446 5.514C62.842 5.514 60.784 7.516 60.784 10.876C60.784 14.264 62.786 16.196 65.362 16.196ZM72.3548 16.196C74.2448 16.196 75.2668 15.146 75.2668 13.844C75.2668 12.402 74.0908 11.912 73.0128 11.506C72.1588 11.198 71.4168 10.946 71.4168 10.288C71.4168 9.756 71.8088 9.336 72.6628 9.336C73.2928 9.336 73.8388 9.63 74.3708 10.008L75.1268 9.014C74.5108 8.524 73.6568 8.104 72.6348 8.104C70.9128 8.104 69.8768 9.07 69.8768 10.358C69.8768 11.674 71.0108 12.22 72.0468 12.612C72.8728 12.92 73.7408 13.242 73.7408 13.928C73.7408 14.516 73.3068 14.964 72.3968 14.964C71.5568 14.964 70.8988 14.614 70.2128 14.082L69.4568 15.132C70.1988 15.748 71.2908 16.196 72.3548 16.196ZM79.0813 16.196C80.9713 16.196 81.9933 15.146 81.9933 13.844C81.9933 12.402 80.8173 11.912 79.7393 11.506C78.8853 11.198 78.1433 10.946 78.1433 10.288C78.1433 9.756 78.5353 9.336 79.3893 9.336C80.0193 9.336 80.5653 9.63 81.0973 10.008L81.8533 9.014C81.2373 8.524 80.3833 8.104 79.3613 8.104C77.6393 8.104 76.6033 9.07 76.6033 10.358C76.6033 11.674 77.7373 12.22 78.7733 12.612C79.5993 12.92 80.4673 13.242 80.4673 13.928C80.4673 14.516 80.0333 14.964 79.1233 14.964C78.2833 14.964 77.6253 14.614 76.9393 14.082L76.1833 15.132C76.9253 15.748 78.0173 16.196 79.0813 16.196Z" fill="black"/>
<rect x="60" y="37" width="10" height="10" fill="#415A63"/>
<rect x="60" y="37" width="10" height="10" fill="#415A63"/>
<rect x="72" y="37" width="10" height="10" fill="#415A63"/>
<rect x="84" y="37" width="10" height="10" fill="#415A63"/>
<rect x="96" y="37" width="10" height="10" fill="#415A63"/>
<rect x="108" y="37" width="10" height="10" fill="#415A63"/>
<rect x="120" y="37" width="10" height="10" fill="#415A63"/>
<rect x="132" y="37" width="10" height="10" fill="#415A63"/>
<rect x="144" y="37" width="10" height="10" fill="#415A63"/>
<rect x="156" y="37" width="10" height="10" fill="#415A63"/>
<rect x="168" y="37" width="10" height="10" fill="#D9D9D9"/>
</svg>
