<svg width="59" height="90" viewBox="0 0 59 90" fill="none" xmlns="http://www.w3.org/2000/svg">
<rect x="0.539062" width="56.1798" height="56.1798" fill="black"/>
<path d="M14.9661 37.1067H17.7561V27.8067H21.8361C26.3061 27.8067 29.5161 25.7067 29.5161 21.2967C29.5161 16.7367 26.3061 15.1167 21.8361 15.1167H14.9661V37.1067ZM17.7561 25.5567V17.3967H21.4461C24.8661 17.3967 26.7561 18.4167 26.7561 21.2967C26.7561 24.1467 24.8661 25.5567 21.4461 25.5567H17.7561ZM27.0561 37.1067H30.1761L23.4561 25.6167L21.2961 27.0567L27.0561 37.1067ZM38.029 37.5267C41.869 37.5267 43.939 35.3367 43.939 32.6667C43.939 29.5767 41.359 28.6167 38.989 27.7167C37.129 27.0567 35.479 26.4567 35.479 24.8967C35.479 23.6367 36.409 22.5567 38.479 22.5567C39.919 22.5567 41.089 23.1867 42.199 23.9967L43.519 22.2567C42.259 21.2367 40.459 20.4267 38.449 20.4267C34.909 20.4267 32.839 22.4367 32.839 25.0167C32.839 27.8067 35.329 28.8867 37.579 29.7567C39.379 30.4167 41.329 31.1667 41.329 32.8167C41.329 34.2567 40.249 35.3967 38.089 35.3967C36.139 35.3967 34.699 34.5867 33.289 33.4467L31.939 35.2767C33.469 36.5367 35.719 37.5267 38.029 37.5267Z" fill="#617E89"/>
<path d="M21.7431 83H23.3671V78.212C23.8431 76.994 24.5991 76.546 25.2151 76.546C25.5371 76.546 25.7331 76.588 25.9991 76.672L26.2791 75.272C26.0411 75.16 25.8031 75.104 25.4251 75.104C24.5991 75.104 23.7871 75.692 23.2411 76.686H23.1991L23.0591 75.3H21.7431V83ZM29.4349 83.196C31.3249 83.196 32.3469 82.146 32.3469 80.844C32.3469 79.402 31.1709 78.912 30.0929 78.506C29.2389 78.198 28.4969 77.946 28.4969 77.288C28.4969 76.756 28.8889 76.336 29.7429 76.336C30.3729 76.336 30.9189 76.63 31.4509 77.008L32.2069 76.014C31.5909 75.524 30.7369 75.104 29.7149 75.104C27.9929 75.104 26.9569 76.07 26.9569 77.358C26.9569 78.674 28.0909 79.22 29.1269 79.612C29.9529 79.92 30.8209 80.242 30.8209 80.928C30.8209 81.516 30.3869 81.964 29.4769 81.964C28.6369 81.964 27.9789 81.614 27.2929 81.082L26.5369 82.132C27.2789 82.748 28.3709 83.196 29.4349 83.196ZM36.1614 83.196C38.0514 83.196 39.0734 82.146 39.0734 80.844C39.0734 79.402 37.8974 78.912 36.8194 78.506C35.9654 78.198 35.2234 77.946 35.2234 77.288C35.2234 76.756 35.6154 76.336 36.4694 76.336C37.0994 76.336 37.6454 76.63 38.1774 77.008L38.9334 76.014C38.3174 75.524 37.4634 75.104 36.4414 75.104C34.7194 75.104 33.6834 76.07 33.6834 77.358C33.6834 78.674 34.8174 79.22 35.8534 79.612C36.6794 79.92 37.5474 80.242 37.5474 80.928C37.5474 81.516 37.1134 81.964 36.2034 81.964C35.3634 81.964 34.7054 81.614 34.0194 81.082L33.2634 82.132C34.0054 82.748 35.0974 83.196 36.1614 83.196Z" fill="black"/>
</svg>
