<svg width="57" height="90" viewBox="0 0 57 90" fill="none" xmlns="http://www.w3.org/2000/svg">
<rect x="0.179688" width="56.1798" height="56.1798" fill="black"/>
<path d="M19.6867 37.5267C23.9767 37.5267 25.7467 34.4667 25.7467 30.6567V15.1167H22.9567V30.4167C22.9567 33.7467 21.8167 35.0667 19.4167 35.0667C17.8567 35.0667 16.5967 34.3767 15.6367 32.6067L13.6267 34.0167C14.9467 36.3267 16.8967 37.5267 19.6867 37.5267ZM35.6814 37.5267C39.5214 37.5267 41.5914 35.3367 41.5914 32.6667C41.5914 29.5767 39.0114 28.6167 36.6414 27.7167C34.7814 27.0567 33.1314 26.4567 33.1314 24.8967C33.1314 23.6367 34.0614 22.5567 36.1314 22.5567C37.5714 22.5567 38.7414 23.1867 39.8514 23.9967L41.1714 22.2567C39.9114 21.2367 38.1114 20.4267 36.1014 20.4267C32.5614 20.4267 30.4914 22.4367 30.4914 25.0167C30.4914 27.8067 32.9814 28.8867 35.2314 29.7567C37.0314 30.4167 38.9814 31.1667 38.9814 32.8167C38.9814 34.2567 37.9014 35.3967 35.7414 35.3967C33.7914 35.3967 32.3514 34.5867 30.9414 33.4467L29.5914 35.2767C31.1214 36.5367 33.3714 37.5267 35.6814 37.5267Z" fill="#617E89"/>
<path d="M15.5817 83.196C17.6817 83.196 18.5777 81.698 18.5777 79.85V72.696H16.9397V79.71C16.9397 81.208 16.4217 81.768 15.3997 81.768C14.7277 81.768 14.1537 81.446 13.7337 80.648L12.5857 81.488C13.2297 82.622 14.1957 83.196 15.5817 83.196ZM23.1673 83.196C25.0573 83.196 26.0793 82.146 26.0793 80.844C26.0793 79.402 24.9033 78.912 23.8253 78.506C22.9713 78.198 22.2293 77.946 22.2293 77.288C22.2293 76.756 22.6213 76.336 23.4753 76.336C24.1053 76.336 24.6513 76.63 25.1833 77.008L25.9393 76.014C25.3233 75.524 24.4693 75.104 23.4473 75.104C21.7253 75.104 20.6893 76.07 20.6893 77.358C20.6893 78.674 21.8233 79.22 22.8593 79.612C23.6853 79.92 24.5533 80.242 24.5533 80.928C24.5533 81.516 24.1193 81.964 23.2093 81.964C22.3693 81.964 21.7113 81.614 21.0253 81.082L20.2693 82.132C21.0113 82.748 22.1033 83.196 23.1673 83.196ZM30.8878 83.196C32.7918 83.196 34.5138 81.712 34.5138 79.164C34.5138 76.588 32.7918 75.104 30.8878 75.104C28.9698 75.104 27.2618 76.588 27.2618 79.164C27.2618 81.712 28.9698 83.196 30.8878 83.196ZM30.8878 81.866C29.6698 81.866 28.9278 80.788 28.9278 79.164C28.9278 77.526 29.6698 76.448 30.8878 76.448C32.0918 76.448 32.8618 77.526 32.8618 79.164C32.8618 80.788 32.0918 81.866 30.8878 81.866ZM36.4071 83H38.0311V77.54C38.7031 76.868 39.1931 76.504 39.9071 76.504C40.8031 76.504 41.1951 77.022 41.1951 78.366V83H42.8191V78.156C42.8191 76.21 42.0911 75.104 40.4531 75.104C39.4031 75.104 38.6051 75.678 37.9051 76.378H37.8631L37.7231 75.3H36.4071V83Z" fill="black"/>
</svg>
