<svg width="57" height="90" viewBox="0 0 57 90" fill="none" xmlns="http://www.w3.org/2000/svg">
<rect width="56.1798" height="56.1798" fill="black"/>
<path d="M13.517 37.1067H16.337L20.207 24.8067C21.017 22.3467 21.707 19.9467 22.427 17.3967H22.547C23.267 19.9467 23.957 22.3467 24.737 24.8067L28.607 37.1067H31.517L24.077 15.1167H20.957L13.517 37.1067ZM17.417 30.3867H27.557V28.1967H17.417V30.3867ZM32.729 44.3967C35.939 44.3967 37.199 42.2967 37.199 38.9967V20.8167H34.439V38.9667C34.439 40.9467 34.049 42.2067 32.429 42.2067C31.859 42.2067 31.289 42.0267 30.899 41.9067L30.359 43.9767C30.899 44.1867 31.739 44.3967 32.729 44.3967ZM35.789 17.4567C36.839 17.4567 37.619 16.7667 37.619 15.6267C37.619 14.5767 36.839 13.8867 35.789 13.8867C34.739 13.8867 33.989 14.5767 33.989 15.6267C33.989 16.7667 34.739 17.4567 35.789 17.4567Z" fill="#617E89"/>
<path d="M14 83H15.652L17.318 77.414C17.668 76.294 17.976 75.146 18.284 73.984H18.34C18.662 75.132 18.97 76.294 19.32 77.414L20.972 83H22.694L19.292 72.696H17.402L14 83ZM15.918 80.074H20.734V78.8H15.918V80.074ZM23.227 86.318C24.935 86.318 25.551 85.198 25.551 83.588V75.3H23.927V83.602C23.927 84.512 23.731 85.03 23.017 85.03C22.765 85.03 22.527 84.974 22.331 84.904L22.023 86.108C22.303 86.22 22.709 86.318 23.227 86.318ZM24.725 73.858C25.313 73.858 25.733 73.48 25.733 72.892C25.733 72.318 25.313 71.94 24.725 71.94C24.137 71.94 23.731 72.318 23.731 72.892C23.731 73.48 24.137 73.858 24.725 73.858ZM29.7799 83.196C30.7039 83.196 31.5299 82.734 32.2299 82.132H32.2859L32.4119 83H33.7419V78.38C33.7419 76.322 32.8599 75.104 30.9419 75.104C29.7099 75.104 28.6179 75.622 27.8339 76.112L28.4359 77.218C29.0799 76.798 29.8499 76.42 30.6619 76.42C31.7819 76.42 32.1039 77.204 32.1179 78.1C28.9259 78.45 27.5259 79.304 27.5259 80.956C27.5259 82.314 28.4639 83.196 29.7799 83.196ZM30.2839 81.908C29.5979 81.908 29.0799 81.6 29.0799 80.844C29.0799 79.976 29.8359 79.402 32.1179 79.136V81.012C31.4879 81.6 30.9559 81.908 30.2839 81.908ZM35.0186 83H36.7126L37.5946 81.376C37.8466 80.914 38.0706 80.452 38.3226 80.018H38.3926C38.6586 80.452 38.9386 80.914 39.1906 81.376L40.1986 83H41.9486L39.4706 79.164L41.7666 75.3H40.0866L39.2886 76.84C39.0646 77.288 38.8546 77.708 38.6446 78.142H38.5886C38.3366 77.708 38.0846 77.288 37.8606 76.84L36.9366 75.3H35.2006L37.4966 78.996L35.0186 83Z" fill="black"/>
</svg>
