<svg width="178" height="51" viewBox="0 0 178 51" fill="none" xmlns="http://www.w3.org/2000/svg">
<rect y="0.625" width="50" height="50" fill="black"/>
<path d="M13.955 35.42C18.245 35.42 20.015 32.36 20.015 28.55V13.01H17.225V28.31C17.225 31.64 16.085 32.96 13.685 32.96C12.125 32.96 10.865 32.27 9.905 30.5L7.895 31.91C9.215 34.22 11.165 35.42 13.955 35.42ZM36.0097 41.87H38.7397V18.71H36.5797L36.3097 20.27H36.2197C34.7797 19.01 33.4597 18.32 31.5697 18.32C27.8497 18.32 24.4897 21.59 24.4897 26.9C24.4897 32.33 27.1297 35.42 31.2097 35.42C33.1297 35.42 34.8097 34.4 36.1297 33.14L36.0097 36.11V41.87ZM31.8097 33.11C28.9597 33.11 27.3397 30.77 27.3397 26.87C27.3397 23.15 29.4097 20.6 32.0197 20.6C33.3697 20.6 34.6297 21.08 36.0097 22.34V30.89C34.6597 32.36 33.3397 33.11 31.8097 33.11Z" fill="#617E89"/>
<path d="M63.402 17.196C65.502 17.196 66.398 15.698 66.398 13.85V6.696H64.76V13.71C64.76 15.208 64.242 15.768 63.22 15.768C62.548 15.768 61.974 15.446 61.554 14.648L60.406 15.488C61.05 16.622 62.016 17.196 63.402 17.196ZM73.6756 20.122H75.2996V9.3H74.0256L73.8716 10.042H73.8296C73.1716 9.426 72.5556 9.104 71.6736 9.104C69.9656 9.104 68.3836 10.658 68.3836 13.164C68.3836 15.712 69.6156 17.196 71.5476 17.196C72.3876 17.196 73.1576 16.762 73.7456 16.188L73.6756 17.518V20.122ZM71.9396 15.852C70.7356 15.852 70.0496 14.886 70.0496 13.136C70.0496 11.484 70.9176 10.448 71.9956 10.448C72.5696 10.448 73.1156 10.644 73.6756 11.162V14.914C73.1296 15.558 72.5696 15.852 71.9396 15.852ZM79.974 17.196C81.038 17.196 81.78 16.65 82.48 15.838H82.522L82.648 17H83.978V9.3H82.368V14.648C81.724 15.46 81.234 15.796 80.52 15.796C79.61 15.796 79.218 15.278 79.218 13.948V9.3H77.608V14.144C77.608 16.104 78.336 17.196 79.974 17.196ZM89.6076 17.196C90.6156 17.196 91.4976 16.86 92.2116 16.384L91.6516 15.348C91.0776 15.712 90.5036 15.922 89.8176 15.922C88.4876 15.922 87.5636 15.054 87.4376 13.584H92.4356C92.4776 13.388 92.5056 13.08 92.5056 12.758C92.5056 10.574 91.3996 9.104 89.3696 9.104C87.5776 9.104 85.8556 10.658 85.8556 13.164C85.8556 15.698 87.5076 17.196 89.6076 17.196ZM87.4096 12.464C87.5776 11.12 88.4316 10.378 89.3976 10.378C90.5176 10.378 91.1056 11.134 91.1056 12.464H87.4096ZM94.3173 17H95.9413V12.212C96.4173 10.994 97.1733 10.546 97.7893 10.546C98.1113 10.546 98.3073 10.588 98.5733 10.672L98.8533 9.272C98.6153 9.16 98.3773 9.104 97.9993 9.104C97.1733 9.104 96.3613 9.692 95.8153 10.686H95.7733L95.6333 9.3H94.3173V17ZM100.67 20.22C102.294 20.22 103.106 19.114 103.708 17.476L106.536 9.3H104.968L103.722 13.262C103.526 13.976 103.316 14.732 103.134 15.446H103.064C102.812 14.718 102.588 13.948 102.35 13.262L100.936 9.3H99.2836L102.336 16.944L102.182 17.476C101.902 18.302 101.398 18.918 100.572 18.918C100.376 18.918 100.152 18.862 100.012 18.806L99.7036 20.066C99.9696 20.164 100.278 20.22 100.67 20.22Z" fill="black"/>
<rect x="60" y="38" width="10" height="10" fill="#415A63"/>
<rect x="60" y="38" width="10" height="10" fill="#415A63"/>
<rect x="72" y="38" width="10" height="10" fill="#415A63"/>
<rect x="84" y="38" width="10" height="10" fill="#415A63"/>
<rect x="96" y="38" width="10" height="10" fill="#415A63"/>
<rect x="108" y="38" width="10" height="10" fill="#415A63"/>
<rect x="120" y="38" width="10" height="10" fill="#415A63"/>
<rect x="132" y="38" width="10" height="10" fill="#415A63"/>
<rect x="144" y="38" width="10" height="10" fill="#D9D9D9"/>
<rect x="156" y="38" width="10" height="10" fill="#D9D9D9"/>
<rect x="168" y="38" width="10" height="10" fill="#D9D9D9"/>
</svg>
