<svg width="178" height="50" viewBox="0 0 178 50" fill="none" xmlns="http://www.w3.org/2000/svg">
<rect width="50" height="50" fill="black"/>
<path d="M9.25 35.625H12.04V26.325H16.12C20.59 26.325 23.8 24.225 23.8 19.815C23.8 15.255 20.59 13.635 16.12 13.635H9.25V35.625ZM12.04 24.075V15.915H15.73C19.15 15.915 21.04 16.935 21.04 19.815C21.04 22.665 19.15 24.075 15.73 24.075H12.04ZM21.34 35.625H24.46L17.74 24.135L15.58 25.575L21.34 35.625ZM34.2128 36.045C36.4328 36.045 38.1428 35.295 39.5828 34.365L38.5928 32.535C37.3928 33.345 36.1028 33.855 34.5428 33.855C31.4228 33.855 29.3228 31.605 29.1128 28.155H40.0928C40.1828 27.735 40.2128 27.165 40.2128 26.595C40.2128 21.915 37.8728 18.945 33.7328 18.945C29.9828 18.945 26.4128 22.215 26.4128 27.525C26.4128 32.865 29.8628 36.045 34.2128 36.045ZM29.0828 26.175C29.4428 22.965 31.4828 21.135 33.7628 21.135C36.3428 21.135 37.8128 22.905 37.8128 26.175H29.0828Z" fill="#617E89"/>
<path d="M61.344 18H62.982V13.842H64.718C66.846 13.842 68.442 12.848 68.442 10.692C68.442 8.452 66.846 7.696 64.718 7.696H61.344V18ZM62.982 12.54V9.012H64.536C66.02 9.012 66.832 9.446 66.832 10.692C66.832 11.924 66.02 12.54 64.536 12.54H62.982ZM66.986 18H68.806L65.614 12.47L64.41 13.422L66.986 18ZM73.3928 18.196C74.4008 18.196 75.2828 17.86 75.9968 17.384L75.4368 16.348C74.8628 16.712 74.2888 16.922 73.6028 16.922C72.2728 16.922 71.3488 16.054 71.2228 14.584H76.2208C76.2628 14.388 76.2908 14.08 76.2908 13.758C76.2908 11.574 75.1848 10.104 73.1548 10.104C71.3628 10.104 69.6408 11.658 69.6408 14.164C69.6408 16.698 71.2928 18.196 73.3928 18.196ZM71.1948 13.464C71.3628 12.12 72.2168 11.378 73.1828 11.378C74.3028 11.378 74.8908 12.134 74.8908 13.464H71.1948ZM79.649 18.196C80.573 18.196 81.399 17.734 82.099 17.132H82.155L82.281 18H83.611V13.38C83.611 11.322 82.729 10.104 80.811 10.104C79.579 10.104 78.487 10.622 77.703 11.112L78.305 12.218C78.949 11.798 79.719 11.42 80.531 11.42C81.651 11.42 81.973 12.204 81.987 13.1C78.795 13.45 77.395 14.304 77.395 15.956C77.395 17.314 78.333 18.196 79.649 18.196ZM80.153 16.908C79.467 16.908 78.949 16.6 78.949 15.844C78.949 14.976 79.705 14.402 81.987 14.136V16.012C81.357 16.6 80.825 16.908 80.153 16.908ZM89.0177 18.196C89.9137 18.196 90.8237 17.86 91.5237 17.244L90.8657 16.166C90.4037 16.558 89.8297 16.866 89.1857 16.866C87.8977 16.866 87.0157 15.788 87.0157 14.164C87.0157 12.526 87.9257 11.448 89.2417 11.448C89.7597 11.448 90.1937 11.672 90.6137 12.036L91.3977 11C90.8517 10.496 90.1377 10.104 89.1577 10.104C87.1277 10.104 85.3497 11.588 85.3497 14.164C85.3497 16.712 86.9457 18.196 89.0177 18.196ZM95.4854 18.196C96.0594 18.196 96.5774 18.042 97.0114 17.902L96.7174 16.712C96.4794 16.81 96.1574 16.908 95.8914 16.908C95.0934 16.908 94.7574 16.418 94.7574 15.508V11.588H96.7734V10.3H94.7574V8.172H93.4134L93.2314 10.3L92.0274 10.384V11.588H93.1474V15.494C93.1474 17.104 93.7634 18.196 95.4854 18.196Z" fill="black"/>
<rect x="60" y="39" width="10" height="10" fill="#415A63"/>
<rect x="60" y="39" width="10" height="10" fill="#415A63"/>
<rect x="72" y="39" width="10" height="10" fill="#415A63"/>
<rect x="84" y="39" width="10" height="10" fill="#415A63"/>
<rect x="96" y="39" width="10" height="10" fill="#415A63"/>
<rect x="108" y="39" width="10" height="10" fill="#415A63"/>
<rect x="120" y="39" width="10" height="10" fill="#415A63"/>
<rect x="132" y="39" width="10" height="10" fill="#415A63"/>
<rect x="144" y="39" width="10" height="10" fill="#415A63"/>
<rect x="156" y="39" width="10" height="10" fill="#D9D9D9"/>
<rect x="168" y="39" width="10" height="10" fill="#D9D9D9"/>
</svg>
