<svg width="178" height="51" viewBox="0 0 178 51" fill="none" xmlns="http://www.w3.org/2000/svg">
<rect y="0.625" width="50" height="50" fill="black"/>
<path d="M14.875 38.125H17.665V28.255H26.035V25.945H17.665V18.475H27.535V16.135H14.875V38.125ZM31.1877 38.125H33.9177V21.835H31.1877V38.125ZM32.5677 18.475C33.6177 18.475 34.3977 17.785 34.3977 16.645C34.3977 15.595 33.6177 14.905 32.5677 14.905C31.4877 14.905 30.7377 15.595 30.7377 16.645C30.7377 17.785 31.4877 18.475 32.5677 18.475Z" fill="#617E89"/>
<path d="M61.344 17.625H62.982V13.201H66.79V11.829H62.982V8.693H67.462V7.321H61.344V17.625ZM69.1337 17.625H70.7577V9.925H69.1337V17.625ZM69.9457 8.483C70.5337 8.483 70.9537 8.105 70.9537 7.517C70.9537 6.943 70.5337 6.565 69.9457 6.565C69.3437 6.565 68.9517 6.943 68.9517 7.517C68.9517 8.105 69.3437 8.483 69.9457 8.483ZM75.8129 21.083C78.2769 21.083 79.8449 19.879 79.8449 18.395C79.8449 17.079 78.8929 16.519 77.0729 16.519H75.6449C74.6789 16.519 74.3569 16.225 74.3569 15.777C74.3569 15.399 74.5389 15.175 74.7769 14.965C75.1269 15.119 75.5189 15.189 75.8549 15.189C77.4789 15.189 78.7529 14.237 78.7529 12.543C78.7529 11.955 78.5429 11.451 78.2489 11.143H79.7049V9.925H76.9889C76.6949 9.813 76.3029 9.729 75.8549 9.729C74.2729 9.729 72.8729 10.751 72.8729 12.501C72.8729 13.411 73.3769 14.153 73.8949 14.545V14.601C73.4609 14.909 73.0409 15.427 73.0409 16.029C73.0409 16.659 73.3349 17.065 73.7409 17.317V17.387C73.0269 17.807 72.6209 18.409 72.6209 19.067C72.6209 20.397 73.9649 21.083 75.8129 21.083ZM75.8549 14.153C75.0709 14.153 74.4129 13.523 74.4129 12.501C74.4129 11.465 75.0569 10.877 75.8549 10.877C76.6669 10.877 77.3109 11.465 77.3109 12.501C77.3109 13.523 76.6529 14.153 75.8549 14.153ZM76.0509 20.019C74.7769 20.019 73.9929 19.571 73.9929 18.829C73.9929 18.437 74.1889 18.045 74.6509 17.695C74.9729 17.779 75.3089 17.807 75.6729 17.807H76.8349C77.7729 17.807 78.2769 18.017 78.2769 18.661C78.2769 19.361 77.3949 20.019 76.0509 20.019ZM81.2606 17.625H82.8846V12.165C83.5006 11.465 84.0886 11.129 84.6066 11.129C85.4886 11.129 85.8946 11.647 85.8946 12.991V17.625H87.5046V12.165C88.1486 11.465 88.7086 11.129 89.2406 11.129C90.1086 11.129 90.5146 11.647 90.5146 12.991V17.625H92.1246V12.781C92.1246 10.835 91.3826 9.729 89.7726 9.729C88.8066 9.729 88.0226 10.345 87.2526 11.143C86.9306 10.261 86.2866 9.729 85.1386 9.729C84.1866 9.729 83.4166 10.303 82.7586 11.003H82.7166L82.5766 9.925H81.2606V17.625ZM96.2877 17.821C97.2117 17.821 98.0377 17.359 98.7377 16.757H98.7937L98.9197 17.625H100.25V13.005C100.25 10.947 99.3677 9.729 97.4497 9.729C96.2177 9.729 95.1257 10.247 94.3417 10.737L94.9437 11.843C95.5877 11.423 96.3577 11.045 97.1697 11.045C98.2897 11.045 98.6117 11.829 98.6257 12.725C95.4337 13.075 94.0337 13.929 94.0337 15.581C94.0337 16.939 94.9717 17.821 96.2877 17.821ZM96.7917 16.533C96.1057 16.533 95.5877 16.225 95.5877 15.469C95.5877 14.601 96.3437 14.027 98.6257 13.761V15.637C97.9957 16.225 97.4637 16.533 96.7917 16.533Z" fill="black"/>
<rect x="60" y="38.625" width="10" height="10" fill="#415A63"/>
<rect x="60" y="38.625" width="10" height="10" fill="#415A63"/>
<rect x="72" y="38.625" width="10" height="10" fill="#415A63"/>
<rect x="84" y="38.625" width="10" height="10" fill="#415A63"/>
<rect x="96" y="38.625" width="10" height="10" fill="#415A63"/>
<rect x="108" y="38.625" width="10" height="10" fill="#415A63"/>
<rect x="120" y="38.625" width="10" height="10" fill="#415A63"/>
<rect x="132" y="38.625" width="10" height="10" fill="#415A63"/>
<rect x="144" y="38.625" width="10" height="10" fill="#D9D9D9"/>
<rect x="156" y="38.625" width="10" height="10" fill="#D9D9D9"/>
<rect x="168" y="38.625" width="10" height="10" fill="#D9D9D9"/>
</svg>
