<svg width="57" height="90" viewBox="0 0 57 90" fill="none" xmlns="http://www.w3.org/2000/svg">
<rect x="0.359375" width="56.1798" height="56.1798" fill="black"/>
<path d="M6.86938 37H9.77938L12.9594 31.06C13.4994 29.98 14.0694 28.87 14.6994 27.52H14.8194C15.5694 28.87 16.1694 29.98 16.7394 31.06L19.9794 37H23.0394L16.6194 25.78L22.6194 15.01H19.7094L16.7394 20.65C16.1994 21.67 15.7794 22.57 15.1794 23.86H15.0594C14.3694 22.57 13.8894 21.67 13.3194 20.65L10.3494 15.01H7.25938L13.2894 25.66L6.86938 37ZM26.3166 37H29.0466V25.18C30.5166 23.53 31.8966 22.69 33.1266 22.69C35.2266 22.69 36.1866 23.98 36.1866 27.04V37H38.9166V25.18C40.4466 23.53 41.7366 22.69 42.9966 22.69C45.0966 22.69 46.0566 23.98 46.0566 27.04V37H48.7866V26.68C48.7866 22.54 47.1666 20.32 43.8366 20.32C41.8566 20.32 40.1466 21.61 38.4366 23.41C37.8066 21.49 36.4566 20.32 33.9666 20.32C32.0166 20.32 30.3066 21.55 28.8966 23.08H28.8066L28.5366 20.71H26.3166V37Z" fill="#617E89"/>
<path d="M17.5694 83H19.2634L20.1454 81.376C20.3974 80.914 20.6214 80.452 20.8734 80.018H20.9434C21.2094 80.452 21.4894 80.914 21.7414 81.376L22.7494 83H24.4994L22.0214 79.164L24.3174 75.3H22.6374L21.8394 76.84C21.6154 77.288 21.4054 77.708 21.1954 78.142H21.1394C20.8874 77.708 20.6354 77.288 20.4114 76.84L19.4874 75.3H17.7514L20.0474 78.996L17.5694 83ZM25.9325 83H27.5565V77.54C28.1725 76.84 28.7605 76.504 29.2785 76.504C30.1605 76.504 30.5665 77.022 30.5665 78.366V83H32.1765V77.54C32.8205 76.84 33.3805 76.504 33.9125 76.504C34.7805 76.504 35.1865 77.022 35.1865 78.366V83H36.7965V78.156C36.7965 76.21 36.0545 75.104 34.4445 75.104C33.4785 75.104 32.6945 75.72 31.9245 76.518C31.6025 75.636 30.9585 75.104 29.8105 75.104C28.8585 75.104 28.0885 75.678 27.4305 76.378H27.3885L27.2485 75.3H25.9325V83ZM40.7495 83.196C41.1555 83.196 41.4075 83.126 41.6175 83.056L41.4075 81.838C41.2675 81.866 41.2115 81.866 41.1415 81.866C40.9455 81.866 40.7635 81.712 40.7635 81.278V71.856H39.1395V81.194C39.1395 82.44 39.5735 83.196 40.7495 83.196Z" fill="black"/>
</svg>
