<svg width="58" height="89" viewBox="0 0 58 89" fill="none" xmlns="http://www.w3.org/2000/svg">
<rect x="0.920898" width="56.1798" height="56.1798" fill="black"/>
<path d="M12.8179 37.1067H27.9979V34.7667H16.2679L27.8779 16.7667V15.1167H13.8979V17.4567H24.4279L12.8179 35.4567V37.1067ZM37.9338 37.5267C40.1538 37.5267 41.8638 36.7767 43.3038 35.8467L42.3138 34.0167C41.1138 34.8267 39.8238 35.3367 38.2638 35.3367C35.1438 35.3367 33.0438 33.0867 32.8338 29.6367H43.8138C43.9038 29.2167 43.9338 28.6467 43.9338 28.0767C43.9338 23.3967 41.5938 20.4267 37.4538 20.4267C33.7038 20.4267 30.1338 23.6967 30.1338 29.0067C30.1338 34.3467 33.5838 37.5267 37.9338 37.5267ZM32.8038 27.6567C33.1638 24.4467 35.2038 22.6167 37.4838 22.6167C40.0638 22.6167 41.5338 24.3867 41.5338 27.6567H32.8038Z" fill="#617E89"/>
<path d="M9.644 83H16.882V81.628H11.66L16.826 73.676V72.696H10.134V74.068H14.81L9.644 82.02V83ZM21.5724 83.196C22.5804 83.196 23.4624 82.86 24.1764 82.384L23.6164 81.348C23.0424 81.712 22.4684 81.922 21.7824 81.922C20.4524 81.922 19.5284 81.054 19.4024 79.584H24.4004C24.4424 79.388 24.4704 79.08 24.4704 78.758C24.4704 76.574 23.3644 75.104 21.3344 75.104C19.5424 75.104 17.8204 76.658 17.8204 79.164C17.8204 81.698 19.4724 83.196 21.5724 83.196ZM19.3744 78.464C19.5424 77.12 20.3964 76.378 21.3624 76.378C22.4824 76.378 23.0704 77.134 23.0704 78.464H19.3744ZM26.2821 86.122H27.9061V83.63L27.8501 82.328C28.4941 82.888 29.1941 83.196 29.8801 83.196C31.6161 83.196 33.1981 81.67 33.1981 79.038C33.1981 76.658 32.0921 75.104 30.1461 75.104C29.2781 75.104 28.4521 75.58 27.7801 76.154H27.7381L27.5981 75.3H26.2821V86.122ZM29.5721 81.852C29.0961 81.852 28.5081 81.67 27.9061 81.152V77.386C28.5501 76.77 29.1241 76.448 29.7121 76.448C31.0001 76.448 31.5321 77.442 31.5321 79.052C31.5321 80.858 30.6781 81.852 29.5721 81.852ZM36.7105 83.196C37.1165 83.196 37.3685 83.126 37.5785 83.056L37.3685 81.838C37.2285 81.866 37.1725 81.866 37.1025 81.866C36.9065 81.866 36.7245 81.712 36.7245 81.278V71.856H35.1005V81.194C35.1005 82.44 35.5345 83.196 36.7105 83.196ZM39.2704 83H40.8944V75.3H39.2704V83ZM40.0824 73.858C40.6704 73.858 41.0904 73.48 41.0904 72.892C41.0904 72.318 40.6704 71.94 40.0824 71.94C39.4804 71.94 39.0884 72.318 39.0884 72.892C39.0884 73.48 39.4804 73.858 40.0824 73.858ZM43.3036 83H44.9276V77.54C45.5996 76.868 46.0896 76.504 46.8036 76.504C47.6996 76.504 48.0916 77.022 48.0916 78.366V83H49.7156V78.156C49.7156 76.21 48.9876 75.104 47.3496 75.104C46.2996 75.104 45.5016 75.678 44.8016 76.378H44.7596L44.6196 75.3H43.3036V83Z" fill="black"/>
</svg>
