<svg width="57" height="90" viewBox="0 0 57 90" fill="none" xmlns="http://www.w3.org/2000/svg">
<rect x="0.741211" width="56.1798" height="56.1798" fill="black"/>
<path d="M14.1682 37.1067H16.9582V28.3767H20.5582C25.3882 28.3767 28.6882 26.2167 28.6882 21.5967C28.6882 16.7667 25.3582 15.1167 20.4382 15.1167H14.1682V37.1067ZM16.9582 26.1267V17.3967H20.0782C23.9782 17.3967 25.9282 18.3867 25.9282 21.5967C25.9282 24.7167 24.0682 26.1267 20.2282 26.1267H16.9582ZM32.9126 37.1067H35.6426V25.2867C37.2626 23.6667 38.4326 22.7967 40.0826 22.7967C42.2426 22.7967 43.1726 24.0867 43.1726 27.1467V37.1067H45.9326V26.7867C45.9326 22.6467 44.3726 20.4267 40.9526 20.4267C38.7026 20.4267 37.0526 21.6567 35.5526 23.1267L35.6426 19.7667V13.2567H32.9126V37.1067Z" fill="#617E89"/>
<path d="M18.9452 86.122H20.5692V83.63L20.5132 82.328C21.1572 82.888 21.8572 83.196 22.5432 83.196C24.2792 83.196 25.8612 81.67 25.8612 79.038C25.8612 76.658 24.7552 75.104 22.8092 75.104C21.9412 75.104 21.1152 75.58 20.4432 76.154H20.4012L20.2612 75.3H18.9452V86.122ZM22.2352 81.852C21.7592 81.852 21.1712 81.67 20.5692 81.152V77.386C21.2132 76.77 21.7872 76.448 22.3752 76.448C23.6632 76.448 24.1952 77.442 24.1952 79.052C24.1952 80.858 23.3412 81.852 22.2352 81.852ZM27.7636 83H29.3876V77.54C30.0596 76.868 30.5496 76.504 31.2636 76.504C32.1596 76.504 32.5516 77.022 32.5516 78.366V83H34.1756V78.156C34.1756 76.21 33.4476 75.104 31.8096 75.104C30.7596 75.104 29.9756 75.678 29.3176 76.322L29.3876 74.796V71.856H27.7636V83ZM36.4589 86.122H38.0829V83.63L38.0269 82.328C38.6709 82.888 39.3709 83.196 40.0569 83.196C41.7929 83.196 43.3749 81.67 43.3749 79.038C43.3749 76.658 42.2689 75.104 40.3229 75.104C39.4549 75.104 38.6289 75.58 37.9569 76.154H37.9149L37.7749 75.3H36.4589V86.122ZM39.7489 81.852C39.2729 81.852 38.6849 81.67 38.0829 81.152V77.386C38.7269 76.77 39.3009 76.448 39.8889 76.448C41.1769 76.448 41.7089 77.442 41.7089 79.052C41.7089 80.858 40.8549 81.852 39.7489 81.852Z" fill="black"/>
</svg>
