<svg width="178" height="50" viewBox="0 0 178 50" fill="none" xmlns="http://www.w3.org/2000/svg">
<rect width="50" height="50" fill="black"/>
<path d="M15.205 36.67C19.495 36.67 21.265 33.61 21.265 29.8V14.26H18.475V29.56C18.475 32.89 17.335 34.21 14.935 34.21C13.375 34.21 12.115 33.52 11.155 31.75L9.145 33.16C10.465 35.47 12.415 36.67 15.205 36.67ZM31.1997 36.67C35.0397 36.67 37.1097 34.48 37.1097 31.81C37.1097 28.72 34.5297 27.76 32.1597 26.86C30.2997 26.2 28.6497 25.6 28.6497 24.04C28.6497 22.78 29.5797 21.7 31.6497 21.7C33.0897 21.7 34.2597 22.33 35.3697 23.14L36.6897 21.4C35.4297 20.38 33.6297 19.57 31.6197 19.57C28.0797 19.57 26.0097 21.58 26.0097 24.16C26.0097 26.95 28.4997 28.03 30.7497 28.9C32.5497 29.56 34.4997 30.31 34.4997 31.96C34.4997 33.4 33.4197 34.54 31.2597 34.54C29.3097 34.54 27.8697 33.73 26.4597 32.59L25.1097 34.42C26.6397 35.68 28.8897 36.67 31.1997 36.67Z" fill="#617E89"/>
<path d="M63.402 17.196C65.502 17.196 66.398 15.698 66.398 13.85V6.696H64.76V13.71C64.76 15.208 64.242 15.768 63.22 15.768C62.548 15.768 61.974 15.446 61.554 14.648L60.406 15.488C61.05 16.622 62.016 17.196 63.402 17.196ZM70.7076 17.196C71.6316 17.196 72.4576 16.734 73.1576 16.132H73.2136L73.3396 17H74.6696V12.38C74.6696 10.322 73.7876 9.104 71.8696 9.104C70.6376 9.104 69.5456 9.622 68.7616 10.112L69.3636 11.218C70.0076 10.798 70.7776 10.42 71.5896 10.42C72.7096 10.42 73.0316 11.204 73.0456 12.1C69.8536 12.45 68.4536 13.304 68.4536 14.956C68.4536 16.314 69.3916 17.196 70.7076 17.196ZM71.2116 15.908C70.5256 15.908 70.0076 15.6 70.0076 14.844C70.0076 13.976 70.7636 13.402 73.0456 13.136V15.012C72.4156 15.6 71.8836 15.908 71.2116 15.908ZM78.6343 17H80.5103L83.1703 9.3H81.6023L80.2863 13.444C80.0623 14.2 79.8383 14.984 79.6143 15.74H79.5443C79.3203 14.984 79.0963 14.2 78.8723 13.444L77.5703 9.3H75.9183L78.6343 17ZM86.0064 17.196C86.9304 17.196 87.7564 16.734 88.4564 16.132H88.5124L88.6384 17H89.9684V12.38C89.9684 10.322 89.0864 9.104 87.1684 9.104C85.9364 9.104 84.8444 9.622 84.0604 10.112L84.6624 11.218C85.3064 10.798 86.0764 10.42 86.8884 10.42C88.0084 10.42 88.3304 11.204 88.3444 12.1C85.1524 12.45 83.7524 13.304 83.7524 14.956C83.7524 16.314 84.6904 17.196 86.0064 17.196ZM86.5104 15.908C85.8244 15.908 85.3064 15.6 85.3064 14.844C85.3064 13.976 86.0624 13.402 88.3444 13.136V15.012C87.7144 15.6 87.1824 15.908 86.5104 15.908ZM94.3392 17.196C96.2292 17.196 97.2512 16.146 97.2512 14.844C97.2512 13.402 96.0752 12.912 94.9972 12.506C94.1432 12.198 93.4012 11.946 93.4012 11.288C93.4012 10.756 93.7932 10.336 94.6472 10.336C95.2772 10.336 95.8232 10.63 96.3552 11.008L97.1112 10.014C96.4952 9.524 95.6412 9.104 94.6192 9.104C92.8972 9.104 91.8612 10.07 91.8612 11.358C91.8612 12.674 92.9952 13.22 94.0312 13.612C94.8572 13.92 95.7252 14.242 95.7252 14.928C95.7252 15.516 95.2912 15.964 94.3812 15.964C93.5412 15.964 92.8832 15.614 92.1972 15.082L91.4412 16.132C92.1832 16.748 93.2752 17.196 94.3392 17.196ZM102.102 17.196C102.998 17.196 103.908 16.86 104.608 16.244L103.95 15.166C103.488 15.558 102.914 15.866 102.27 15.866C100.982 15.866 100.1 14.788 100.1 13.164C100.1 11.526 101.01 10.448 102.326 10.448C102.844 10.448 103.278 10.672 103.698 11.036L104.482 10C103.936 9.496 103.222 9.104 102.242 9.104C100.212 9.104 98.4337 10.588 98.4337 13.164C98.4337 15.712 100.03 17.196 102.102 17.196ZM106.198 17H107.822V12.212C108.298 10.994 109.054 10.546 109.67 10.546C109.992 10.546 110.188 10.588 110.454 10.672L110.734 9.272C110.496 9.16 110.258 9.104 109.88 9.104C109.054 9.104 108.242 9.692 107.696 10.686H107.654L107.514 9.3H106.198V17ZM111.927 17H113.551V9.3H111.927V17ZM112.739 7.858C113.327 7.858 113.747 7.48 113.747 6.892C113.747 6.318 113.327 5.94 112.739 5.94C112.137 5.94 111.745 6.318 111.745 6.892C111.745 7.48 112.137 7.858 112.739 7.858ZM115.96 20.122H117.584V17.63L117.528 16.328C118.172 16.888 118.872 17.196 119.558 17.196C121.294 17.196 122.876 15.67 122.876 13.038C122.876 10.658 121.77 9.104 119.824 9.104C118.956 9.104 118.13 9.58 117.458 10.154H117.416L117.276 9.3H115.96V20.122ZM119.25 15.852C118.774 15.852 118.186 15.67 117.584 15.152V11.386C118.228 10.77 118.802 10.448 119.39 10.448C120.678 10.448 121.21 11.442 121.21 13.052C121.21 14.858 120.356 15.852 119.25 15.852ZM126.999 17.196C127.573 17.196 128.091 17.042 128.525 16.902L128.231 15.712C127.993 15.81 127.671 15.908 127.405 15.908C126.607 15.908 126.271 15.418 126.271 14.508V10.588H128.287V9.3H126.271V7.172H124.927L124.745 9.3L123.541 9.384V10.588H124.661V14.494C124.661 16.104 125.277 17.196 126.999 17.196Z" fill="black"/>
<rect x="60" y="38" width="10" height="10" fill="#415A63"/>
<rect x="60" y="38" width="10" height="10" fill="#415A63"/>
<rect x="72" y="38" width="10" height="10" fill="#415A63"/>
<rect x="84" y="38" width="10" height="10" fill="#415A63"/>
<rect x="96" y="38" width="10" height="10" fill="#415A63"/>
<rect x="108" y="38" width="10" height="10" fill="#415A63"/>
<rect x="120" y="38" width="10" height="10" fill="#415A63"/>
<rect x="132" y="38" width="10" height="10" fill="#415A63"/>
<rect x="144" y="38" width="10" height="10" fill="#415A63"/>
<rect x="156" y="38" width="10" height="10" fill="#D9D9D9"/>
<rect x="168" y="38" width="10" height="10" fill="#D9D9D9"/>
</svg>
