<svg width="178" height="50" viewBox="0 0 178 50" fill="none" xmlns="http://www.w3.org/2000/svg">
<rect width="50" height="50" fill="black"/>
<path d="M17.215 36.67C21.835 36.67 24.685 33.91 24.685 30.43C24.685 27.16 22.735 25.63 20.155 24.52L17.035 23.17C15.325 22.45 13.405 21.67 13.405 19.51C13.405 17.56 15.025 16.3 17.515 16.3C19.525 16.3 21.145 17.11 22.495 18.37L23.965 16.6C22.435 14.98 20.125 13.87 17.515 13.87C13.495 13.87 10.585 16.33 10.585 19.72C10.585 22.93 12.985 24.49 15.055 25.36L18.205 26.74C20.275 27.64 21.865 28.36 21.865 30.64C21.865 32.77 20.155 34.21 17.275 34.21C14.995 34.21 12.775 33.16 11.185 31.48L9.535 33.4C11.455 35.41 14.125 36.67 17.215 36.67ZM35.1461 36.67C37.0961 36.67 38.9861 35.89 40.4261 34.6L39.2561 32.77C38.2361 33.67 36.8861 34.39 35.4161 34.39C32.4161 34.39 30.3461 31.87 30.3461 28.15C30.3461 24.37 32.5061 21.85 35.5061 21.85C36.7661 21.85 37.7861 22.42 38.7461 23.29L40.1261 21.49C38.9861 20.44 37.4861 19.57 35.3561 19.57C31.1861 19.57 27.5261 22.69 27.5261 28.15C27.5261 33.52 30.8261 36.67 35.1461 36.67Z" fill="#617E89"/>
<path d="M64.298 16.196C66.552 16.196 67.924 14.838 67.924 13.186C67.924 11.674 67.042 10.918 65.824 10.4L64.41 9.812C63.57 9.462 62.744 9.126 62.744 8.244C62.744 7.432 63.416 6.928 64.466 6.928C65.376 6.928 66.104 7.278 66.748 7.838L67.588 6.816C66.818 6.018 65.684 5.514 64.466 5.514C62.506 5.514 61.092 6.732 61.092 8.356C61.092 9.854 62.184 10.638 63.178 11.044L64.606 11.674C65.558 12.08 66.258 12.374 66.258 13.312C66.258 14.194 65.558 14.768 64.326 14.768C63.332 14.768 62.31 14.292 61.582 13.55L60.63 14.684C61.568 15.636 62.87 16.196 64.298 16.196ZM72.8576 16.196C73.7536 16.196 74.6636 15.86 75.3636 15.244L74.7056 14.166C74.2436 14.558 73.6696 14.866 73.0256 14.866C71.7376 14.866 70.8556 13.788 70.8556 12.164C70.8556 10.526 71.7656 9.448 73.0816 9.448C73.5996 9.448 74.0336 9.672 74.4536 10.036L75.2376 9C74.6916 8.496 73.9776 8.104 72.9976 8.104C70.9676 8.104 69.1896 9.588 69.1896 12.164C69.1896 14.712 70.7856 16.196 72.8576 16.196ZM79.054 16.196C80.944 16.196 81.966 15.146 81.966 13.844C81.966 12.402 80.79 11.912 79.712 11.506C78.858 11.198 78.116 10.946 78.116 10.288C78.116 9.756 78.508 9.336 79.362 9.336C79.992 9.336 80.538 9.63 81.07 10.008L81.826 9.014C81.21 8.524 80.356 8.104 79.334 8.104C77.612 8.104 76.576 9.07 76.576 10.358C76.576 11.674 77.71 12.22 78.746 12.612C79.572 12.92 80.44 13.242 80.44 13.928C80.44 14.516 80.006 14.964 79.096 14.964C78.256 14.964 77.598 14.614 76.912 14.082L76.156 15.132C76.898 15.748 77.99 16.196 79.054 16.196ZM85.7806 16.196C87.6706 16.196 88.6926 15.146 88.6926 13.844C88.6926 12.402 87.5166 11.912 86.4386 11.506C85.5846 11.198 84.8426 10.946 84.8426 10.288C84.8426 9.756 85.2346 9.336 86.0886 9.336C86.7186 9.336 87.2646 9.63 87.7966 10.008L88.5526 9.014C87.9366 8.524 87.0826 8.104 86.0606 8.104C84.3386 8.104 83.3026 9.07 83.3026 10.358C83.3026 11.674 84.4366 12.22 85.4726 12.612C86.2986 12.92 87.1666 13.242 87.1666 13.928C87.1666 14.516 86.7326 14.964 85.8226 14.964C84.9826 14.964 84.3246 14.614 83.6386 14.082L82.8826 15.132C83.6246 15.748 84.7166 16.196 85.7806 16.196Z" fill="black"/>
<rect x="60" y="37" width="10" height="10" fill="#415A63"/>
<rect x="60" y="37" width="10" height="10" fill="#415A63"/>
<rect x="72" y="37" width="10" height="10" fill="#415A63"/>
<rect x="84" y="37" width="10" height="10" fill="#415A63"/>
<rect x="96" y="37" width="10" height="10" fill="#415A63"/>
<rect x="108" y="37" width="10" height="10" fill="#415A63"/>
<rect x="120" y="37" width="10" height="10" fill="#415A63"/>
<rect x="132" y="37" width="10" height="10" fill="#415A63"/>
<rect x="144" y="37" width="10" height="10" fill="#415A63"/>
<rect x="156" y="37" width="10" height="10" fill="#415A63"/>
<rect x="168" y="37" width="10" height="10" fill="#D9D9D9"/>
</svg>
